<?xml version="1.0" encoding="UTF-8" standalone="no"?>
<svg width="89px" height="77px" viewBox="0 0 89 77" version="1.1" xmlns="http://www.w3.org/2000/svg" xmlns:xlink="http://www.w3.org/1999/xlink">
    <!-- Generator: Sketch 3.6 (26304) - http://www.bohemiancoding.com/sketch -->
    <title>branding-icon</title>
    <desc>Created with Sketch.</desc>
    <defs></defs>
    <g id="Concept-1" stroke="none" stroke-width="1" fill="none" fill-rule="evenodd">
        <g id="about-page_desktop" transform="translate(-806.000000, -1647.000000)" fill="#000000">
            <g id="about-skills" transform="translate(337.000000, 630.000000)">
                <g id="branding" transform="translate(413.000000, 955.000000)">
                    <g id="branding-icon" transform="translate(56.000000, 62.000000)">
                        <path d="M5.20295419,65.8243077 L83.7970458,65.8243077 L83.7970458,51.141571 L5.20295419,51.141571 L5.20295419,65.8243077 Z M42.700645,37.9486135 C43.2937818,38.005846 43.8921215,38.0405324 44.5008672,38.0405324 C45.1078785,38.0405324 45.7079525,38.005846 46.3010893,37.9486135 L46.3010893,45.9386168 L42.700645,45.9386168 L42.700645,37.9486135 Z M30.6835552,19.0202662 C30.6835552,11.4014069 36.8820079,5.20295419 44.5008672,5.20295419 C52.1197264,5.20295419 58.3164448,11.4014069 58.3164448,19.0202662 C58.3164448,26.6391254 52.1197264,32.8375782 44.5008672,32.8375782 C36.8820079,32.8375782 30.6835552,26.6391254 30.6835552,19.0202662 L30.6835552,19.0202662 Z M86.3985229,45.9386168 L51.5040435,45.9386168 L51.5040435,36.6877643 C58.5315003,33.8903093 63.519399,27.0328156 63.519399,19.0202662 C63.519399,8.53284487 54.9882885,-4.97379915e-14 44.5008672,-4.97379915e-14 C34.0134458,-4.97379915e-14 25.480601,8.53284487 25.480601,19.0202662 C25.480601,27.0328156 30.470234,33.8903093 37.4976908,36.6877643 L37.4976908,45.9386168 L2.60147709,45.9386168 C1.16372742,45.9386168 -3.83693077e-13,47.1040786 -3.83693077e-13,48.5400939 L-3.83693077e-13,68.4257848 C-3.83693077e-13,69.8618002 1.16372742,71.0272619 2.60147709,71.0272619 L7.44716176,71.0272619 L7.44716176,73.7952335 C7.44716176,75.2312489 8.6126235,76.3967106 10.0486389,76.3967106 L78.9513611,76.3967106 C80.3891108,76.3967106 81.5528382,75.2312489 81.5528382,73.7952335 L81.5528382,71.0272619 L86.3985229,71.0272619 C87.8362726,71.0272619 89,69.8618002 89,68.4257848 L89,48.5400939 C89,47.1040786 87.8362726,45.9386168 86.3985229,45.9386168 L86.3985229,45.9386168 Z" id="Page-1"></path>
                    </g>
                </g>
            </g>
        </g>
    </g>
</svg>