<?xml version="1.0" encoding="UTF-8" standalone="no"?>
<svg width="240px" height="226px" viewBox="0 0 240 226" version="1.1" xmlns="http://www.w3.org/2000/svg" xmlns:xlink="http://www.w3.org/1999/xlink">
    <!-- Generator: Sketch 3.6 (26304) - http://www.bohemiancoding.com/sketch -->
    <title>easter-egg</title>
    <desc>Created with Sketch.</desc>
    <defs>
        <path id="path-1" d="M103.966503,0.378333333 L0,0.378333333 L0,127.624507 L103.966503,127.624507 L103.966503,0.378333333 L103.966503,0.378333333 Z"></path>
        <path id="path-3" d="M0.434141732,107.825 L228.545638,107.825 L228.545638,0.518365231 L0.434141732,0.518365231 L0.434141732,107.825 L0.434141732,107.825 Z"></path>
    </defs>
    <g id="Concept-1" stroke="none" stroke-width="1" fill="none" fill-rule="evenodd">
        <g id="about-page_desktop" transform="translate(-364.000000, -212.000000)">
            <g id="about-header" transform="translate(276.000000, -1.000000)">
                <g id="bw-headshot" transform="translate(0.000000, 120.000000)">
                    <g id="bacon-smile" transform="translate(88.000000, 93.000000)">
                        <g id="Group-3" transform="translate(0.000000, 0.513333)">
                            <mask id="mask-2" fill="white">
                                <use xlink:href="#path-1"></use>
                            </mask>
                            <g id="Clip-2"></g>
                            <path d="M6.53782677,69.1455242 C6.8496378,68.7652992 7.30129134,68.3718325 7.78129134,67.9556658 C8.48050394,67.3484408 9.27231496,66.6598742 9.95074016,65.7424158 C12.7721575,61.9325992 11.7195591,57.2393742 10.8729449,53.4711742 L10.6348346,52.3929242 C9.59546457,47.5653908 9.61814173,42.4654575 10.7047559,37.6492742 C10.9844409,36.4026658 11.3737323,35.0198575 12.1447559,34.1894158 C12.8590866,33.4157242 14.1271181,32.8841658 15.9110551,32.6079825 C17.1734173,32.4074658 18.464126,32.3431492 19.7888504,32.3431492 C21.0115276,32.3431492 22.2625512,32.3980075 23.5475906,32.4547575 C25.7661732,32.5512325 28.0603465,32.6552742 30.3904252,32.4679992 C35.7252283,32.0442658 42.6266457,29.3032408 44.5220787,22.9775075 C45.0908976,21.0744908 45.0871181,19.1733658 45.0852283,17.4973492 C45.0833386,16.1542658 45.0814488,14.8868492 45.3630236,13.8161658 C46.5308976,9.38209917 52.6064882,7.5471825 55.1633386,6.96644083 C59.3453858,6.0149325 63.3025512,5.80684917 66.9290079,6.34786583 C69.1230236,6.67701583 71.1715276,7.2861325 73.0197165,8.1600825 C78.5189291,10.7611242 82.2436535,16.0388742 82.2871181,21.2920325 C82.2946772,22.0524825 82.2342047,22.8204992 82.1775118,23.5866242 C82.0452283,25.3723575 81.8921575,27.3983325 82.4364094,29.4640325 C83.3491654,32.9503742 85.8625512,35.3584658 88.0773543,37.4828075 C88.5157795,37.9027575 88.9542047,38.3227075 89.3737323,38.7464408 C93.6011339,43.0159325 97.7737323,50.0756325 97.5620787,56.2254408 C97.4864882,58.4178825 96.2694803,60.6330242 94.9806614,62.9786908 C93.2005039,66.2191158 91.1822362,69.8927325 91.8927874,74.2946408 C92.2915276,76.7632658 93.5746772,78.7570825 94.7047559,80.5163325 C95.0354646,81.0289742 95.3661732,81.5416158 95.6685354,82.0618242 C98.4408189,86.8420658 99.0455433,93.2340075 97.3712126,100.059141 C95.8064882,106.451083 92.5466457,112.477933 89.3926299,118.308049 C88.7463307,119.501691 88.0149921,120.856124 87.0871181,121.417949 C86.2045984,121.951399 84.8005039,121.979774 83.4153071,121.932482 C63.5463307,121.242024 45.3497953,108.891333 29.8537323,97.3691908 C22.7444409,92.0838742 15.8827087,86.8155825 10.0735748,80.4917408 C6.80995276,76.9391908 4.31168504,71.8733075 6.53782677,69.1455242 M26.4729449,101.924324 C42.6549921,113.957216 61.7208189,126.858383 83.2187717,127.603699 C83.5589291,127.616941 83.9028661,127.624508 84.2486929,127.624508 C86.1951496,127.624508 88.1945197,127.380483 90.0200315,126.271966 C92.2669606,124.913749 93.487748,122.656991 94.3778268,121.009349 C97.7019213,114.865216 101.139402,108.511108 102.877984,101.411683 C104.903811,93.1526658 104.083654,85.2700908 100.570583,79.2129742 C100.224756,78.6170992 99.8486929,78.0287908 99.4707402,77.4442658 C98.559874,76.0274075 97.7000315,74.6899992 97.4902677,73.3885325 C97.0896378,70.9161242 98.4143622,68.5042492 99.9469606,65.7140408 C101.428535,63.0203075 103.106646,59.9652658 103.227591,56.4202825 C103.516724,48.0420908 98.1138898,39.5106742 93.3989291,34.7493492 C92.9453858,34.2915658 92.4729449,33.8394575 91.9986142,33.3854575 C90.1617638,31.6224242 88.4269606,29.9596492 87.9186142,28.0244742 C87.616252,26.8743408 87.720189,25.4820742 87.831685,24.0084658 C87.8997165,23.0853325 87.9639685,22.1621992 87.9564094,21.2447408 C87.895937,13.8577825 82.8653858,6.53892417 75.4405039,3.02799083 C73.0915276,1.9175825 70.512,1.14767417 67.768063,0.735290833 L67.7661732,0.735290833 C63.4386142,0.0845575 58.7784567,0.324799167 53.9047559,1.43142417 C49.4789291,2.4396825 41.7686929,5.2034075 39.8808189,12.3709325 C39.4121575,14.1566658 39.4140472,15.9367242 39.415937,17.5049158 C39.4178268,18.9142075 39.4197165,20.2459408 39.0908976,21.3468908 C38.0874331,24.6989242 33.7731024,26.5073575 29.9406614,26.8119158 C27.9582992,26.9689242 25.9381417,26.8781242 23.7970394,26.7854325 C20.9605039,26.6605825 18.023811,26.5319492 15.0379843,26.9991908 C11.9217638,27.4853492 9.61625197,28.5730575 7.98727559,30.3285242 C6.3016063,32.1483075 5.61940157,34.4201992 5.17341732,36.3988825 C3.90727559,42.0171325 3.8808189,47.9626408 5.09215748,53.5884575 L5.3416063,54.7139992 C5.99546457,57.6271658 6.672,60.6405908 5.39640945,62.3638992 C5.08648819,62.7819575 4.58948031,63.2132575 4.06412598,63.6691492 C3.45562205,64.1988158 2.76774803,64.7965825 2.14790551,65.5551408 C-2.54059843,71.2982408 1.23892913,79.2602658 5.90097638,84.3337158 C12.0445984,91.0207575 19.1368819,96.4706492 26.4729449,101.924324" id="Fill-1" fill="#000000" mask="url(#mask-2)"></path>
                        </g>
                        <path d="M233.157165,70.7968842 C233.11937,71.6708342 233.109921,72.6034258 233.098583,73.5681758 C233.021102,81.0591758 232.325669,84.2769008 228.215433,84.8065675 C227.12126,84.9446592 225.947717,84.9295258 224.702362,84.9068258 C223.232126,84.8803425 221.710866,84.8557508 220.123465,85.0884258 C213.964724,85.9831842 209.777008,90.1070175 206.08063,93.7465842 C204.342047,95.4585425 202.699843,97.0759175 200.919685,98.3565758 C197.880945,100.545234 194.297953,101.784276 190.505197,103.097092 C186.599055,104.447742 182.55874,105.845684 178.924724,108.389976 C177.685039,109.256359 176.551181,110.224892 175.455118,111.159376 C173.387717,112.924301 171.431811,114.590859 169.224567,115.175384 C165.422362,116.181751 162.085039,114.172801 158.224252,111.844159 C156.136063,110.584309 153.976063,109.282842 151.619528,108.429701 C149.99811,107.839501 148.246299,107.483867 146.554961,107.135801 C143.331024,106.477501 140.284724,105.855142 138.702992,103.842409 C136.63748,101.214884 137.480315,97.0664592 138.370394,92.6721175 C139.113071,89.0098508 139.882205,85.2227342 139.107402,81.6720758 L138.829606,80.4292508 C138.130394,77.3269175 137.468976,74.3948342 138.154961,71.8164925 C138.589606,70.1839842 139.60252,68.5949842 140.675906,66.9114008 C142.034646,64.7776008 143.576693,62.3600508 144.094488,59.4525592 C145.20378,53.2270842 141.709606,48.5679092 138.629291,44.4573175 C137.126929,42.4559342 135.709606,40.5661592 134.889449,38.6423342 C132.487559,33.0013842 135.150236,25.5709175 140.588976,22.7447675 C141.84378,22.0921425 143.342362,21.6154425 144.929764,21.1103675 C147.855118,20.1796675 151.169764,19.1279008 153.686929,16.6082008 C155.75811,14.5368258 156.523465,12.5354425 157.082835,11.0750758 C157.734803,9.3631175 157.774488,9.2609675 159.537638,9.05477583 C159.887244,9.01505083 160.272756,8.98667583 160.703622,8.9715425 L163.902992,8.86182583 C175.158425,8.47403417 186.793701,8.0748925 197.964094,9.9646675 C203.047559,10.8215925 206.838425,12.0795508 208.813228,15.4296925 C209.478425,16.5628008 209.950866,17.9077758 210.449764,19.3303092 C211.192441,21.4433008 211.959685,23.6281758 213.488504,25.6011842 C216.130394,29.0080758 220.114016,30.5289758 223.627087,31.8701675 L224.825197,32.3317342 C231.800315,35.0576258 232.442835,40.2861925 232.979528,49.2962008 C233.406614,56.4258925 233.465197,63.6615175 233.157165,70.7968842 M238.63937,48.9557008 C238.119685,40.2407925 237.582992,31.2270008 226.888819,27.0445258 L225.647244,26.5678258 C222.555591,25.3874258 219.634016,24.2713425 217.967244,22.1224092 C217.001575,20.8776925 216.417638,19.2111342 215.799685,17.4499925 C215.230866,15.8307258 214.645039,14.1584925 213.696378,12.5486842 C210.428976,7.00042583 204.657638,5.33765083 198.907087,4.36722583 C187.173543,2.3828675 175.243465,2.79525083 163.708346,3.19060917 L160.512756,3.30032583 C159.91937,3.3192425 159.380787,3.36275083 158.891339,3.41760917 L158.885669,3.41760917 C153.707717,4.02105083 152.598425,6.92475917 151.785827,9.0453175 C151.328504,10.2446342 150.895748,11.3777425 149.67874,12.5940842 C148.138583,14.1357925 145.746142,14.8962425 143.213858,15.7020925 C141.467717,16.2563508 139.662992,16.8314175 137.975433,17.7091508 C129.915591,21.8973008 126.113386,32.5038758 129.675591,40.8669342 C130.764094,43.4225758 132.457323,45.6812258 134.093858,47.8642092 C136.828346,51.5113425 139.190551,54.6609675 138.514016,58.4556508 C138.192756,60.2565175 137.077795,62.0063092 135.894803,63.8582508 C134.63811,65.8331508 133.337953,67.8723675 132.676535,70.3580175 C131.631496,74.2851175 132.517795,78.2141092 133.300157,81.6796425 L133.568504,82.8846342 C134.088189,85.2643508 133.470236,88.3156092 132.814488,91.5446842 C131.75811,96.7543342 130.56,102.662009 134.248819,107.351451 C137.115591,110.998584 141.528189,111.900909 145.419213,112.695409 C146.982047,113.015101 148.456063,113.317768 149.690079,113.764201 C151.525039,114.430068 153.35811,115.534801 155.298898,116.705743 C158.776063,118.801709 162.627402,121.122784 167.176063,121.122784 C168.298583,121.122784 169.462677,120.982801 170.674016,120.661218 C174.128504,119.747543 176.672126,117.575909 179.132598,115.478051 C180.173858,114.590859 181.156535,113.752851 182.173228,113.041584 C185.159055,110.951293 188.655118,109.740626 192.357165,108.459968 C196.369134,107.073376 200.517165,105.637601 204.228661,102.964676 C206.364094,101.426751 208.24063,99.5804842 210.056693,97.7928592 C213.431811,94.4710925 216.617953,91.3309258 220.937953,90.7028925 C222.075591,90.5402092 223.305827,90.5591258 224.609764,90.5818258 C225.99874,90.6064175 227.43685,90.6291175 228.939213,90.4342758 C238.607244,89.1914508 238.707402,79.4474758 238.767874,73.6268175 C238.777323,72.7282758 238.786772,71.8581092 238.820787,71.0409092 C239.138268,63.7125925 239.075906,56.2821258 238.63937,48.9557008" id="Fill-4" fill="#000000"></path>
                        <g id="Group-8" transform="translate(2.889764, 117.796667)">
                            <mask id="mask-4" fill="white">
                                <use xlink:href="#path-3"></use>
                            </mask>
                            <g id="Clip-7"></g>
                            <path d="M222.876346,17.750265 C222.573984,18.0945483 222.322646,18.4955817 222.156346,18.953365 C215.785953,36.5893733 197.56674,49.7269983 178.837291,50.1904567 C175.059654,50.279365 171.25178,49.93319 167.226583,49.564315 C160.453669,48.9381733 153.446425,48.29879 146.44485,49.91049 C142.640756,50.7882233 139.127685,52.2731817 135.728,53.7089567 C132.396346,55.1163567 129.24989,56.4461983 125.995717,57.16314 C118.274142,58.859965 112.187213,57.3409567 105.743118,55.727365 C98.7717795,53.98514 91.5642205,52.18049 82.1531969,54.1913317 C80.087685,54.6339817 77.8842205,55.1787817 75.6032756,55.7406067 C68.4902047,57.4998567 60.4303622,59.495565 54.2130394,58.7597067 C47.4212283,57.95764 33.4691024,50.71634 29.0980787,45.2267233 C25.5207559,40.734015 22.6823307,38.0402817 19.6435906,36.6215317 C17.3815433,35.5659817 16.7409134,33.8256483 14.320126,31.5310567 C10.6691024,28.067415 8.12359055,23.4460733 6.95949606,18.1626483 C6.86500787,17.738915 6.69114961,17.3567983 6.47571654,17.0049483 C7.4791811,18.3272233 8.5695748,19.5757233 9.77146457,20.7145067 C12.5154016,23.31744 15.4539843,25.4134067 18.2942992,27.4412733 C22.2174488,30.2428317 25.9213858,32.8873817 28.9298898,36.66504 C33.7506772,42.7221567 39.2139843,49.5851233 48.4681575,50.6785067 C54.8366614,51.4351733 60.6420157,49.1765233 66.2602835,46.9916483 C69.3954016,45.7753067 72.3585512,44.6232817 75.3802835,43.9782233 C83.3267402,42.2738317 91.4791811,44.08794 100.111622,46.0079817 C109.01052,47.986665 118.213669,50.0277733 127.414929,48.0055817 C131.262488,47.1600067 134.839811,45.6466733 138.299969,44.1863067 C141.584378,42.799715 144.68548,41.48879 147.930205,40.7415817 C153.899969,39.3644483 160.081386,39.9319483 166.621858,40.5334983 C170.658394,40.904265 174.834772,41.2882733 178.999811,41.1861233 C196.587843,40.75104 213.263118,31.0448983 222.876346,16.4998733 L222.876346,17.750265 Z M222.876346,43.49774 C222.470047,44.025515 222.118551,44.6024733 221.880441,45.262665 C215.600756,62.6470817 194.730205,69.2773733 178.76737,69.67084 C175.146583,69.7521817 171.425638,69.4173567 167.48548,69.0541567 C160.489575,68.4147733 153.253669,67.747015 145.80989,69.4627567 C141.765795,70.3953483 138.137449,71.92949 134.626268,73.4125567 C131.419339,74.7688817 128.388157,76.04954 125.389102,76.7059483 C118.332724,78.2590067 111.977449,76.6378483 104.620598,74.7632067 C96.8139843,72.76939 87.9661102,70.5126317 77.8993386,72.6691317 C74.1368189,73.47309 70.6766614,74.8161733 67.3317795,76.1157483 C62.3749291,78.0395733 58.0851654,79.69289 54.0694173,79.2256483 C49.0369764,78.631665 45.7053228,74.85779 40.8127244,68.711765 C36.8990236,63.797215 31.1805984,60.7137983 25.6511496,57.7344233 C21.9453228,55.7368233 18.4454803,53.8508317 16.2703622,51.788915 C14.5979213,50.2036983 12.8291024,48.9268233 11.2700472,47.8012817 C8.2672126,45.6353233 6.91792126,44.5381567 6.60611024,43.1250817 C6.49461417,42.6143317 6.31886614,42.1338483 6.10343307,41.68174 L6.10343307,33.3773233 C6.95949606,34.69014 7.95162205,35.91594 9.12138583,37.0244567 C12.4341417,40.1646233 13.7324094,41.948465 16.3176063,43.1534567 C19.0388661,44.4246567 20.7169764,46.840315 23.1868976,49.9426483 C28.5065827,56.6259067 44.1765039,65.193265 53.3267402,66.2752983 C54.5380787,66.4171733 55.7796535,66.48149 57.0439055,66.48149 C63.6826457,66.48149 70.9128819,64.6957567 77.4155591,63.08784 C79.6152441,62.54304 81.7412283,62.0190483 83.7349291,61.5915317 C91.431937,59.9457817 97.4924094,61.4610067 103.910047,63.0670317 C110.915402,64.818715 118.162646,66.634715 127.619024,64.5538817 C131.549732,63.68939 135.16863,62.1590317 138.668472,60.68164 C141.913197,59.3101817 144.976504,58.0162817 148.143748,57.2860983 C153.96422,55.943015 160.071937,56.5067317 166.536819,57.0969317 C170.597921,57.4714817 174.798866,57.8687317 179.022488,57.75334 C197.850205,57.28799 213.898079,46.06284 222.876346,29.8796317 L222.876346,43.49774 Z M178.859969,92.5089317 C175.019969,92.614865 171.01178,92.2365317 167.133984,91.8808983 C160.434772,91.2661067 153.508787,90.6267233 146.656504,92.2081567 C142.933669,93.0669733 139.456504,94.5349067 136.096504,95.9555483 C132.723276,97.3799733 129.537134,98.72684 126.199811,99.4626983 C118.221228,101.21249 110.021543,99.3945983 101.339969,97.4650983 C92.495874,95.5015483 83.3475276,93.466115 74.1954016,95.4258817 C70.7295748,96.167415 67.4130394,97.45564 64.208,98.7003567 C59.0054803,100.718765 54.0864252,102.616107 49.1333543,102.042932 C42.1979213,101.221948 37.9081575,95.8344817 33.3632756,90.129215 C29.8596535,85.7273067 25.6530394,82.72334 21.584378,79.8196317 C18.7780787,77.814465 16.1286299,75.9227983 13.6700472,73.592265 C10.0908346,70.1967233 7.54910236,65.7286067 6.26217323,60.6343483 C6.56831496,60.8897233 6.89713386,61.141315 7.17303937,61.402365 C10.6256378,64.6749483 15.0760315,67.0754733 19.3790236,69.392765 C23.7368189,71.742215 28.2439055,74.171115 30.4681575,76.963215 C35.479811,83.262465 41.719811,91.1015317 52.519811,92.376515 C53.5176063,92.4937983 54.5021732,92.5486567 55.4735118,92.5486567 C61.5887874,92.5486567 67.1390236,90.3940483 72.1147717,88.460765 C75.1081575,87.2992817 77.9333543,86.202115 80.664063,85.61759 C87.7015433,84.1099317 94.3327244,85.8029733 101.355087,87.5943817 C109.205165,89.595765 118.107843,91.8695483 128.225638,89.641165 C132.411465,88.721815 136.153197,87.1403817 139.770205,85.611915 C142.897764,84.28964 145.853354,83.0430317 148.780598,82.3677067 C154.158866,81.1267733 160.04548,81.66779 166.276031,82.240965 C170.418394,82.6230817 174.696819,83.0222233 179.094299,82.9087233 C191.385323,82.604165 206.063118,79.131065 217.579339,71.0933733 C208.858079,83.5991817 194.030992,92.1362733 178.859969,92.5089317 L178.859969,92.5089317 Z M226.200441,1.81864833 C224.84548,1.58219 223.513197,2.35399 223.044535,3.64978167 C216.547528,21.6395317 197.96548,35.0400983 178.859969,35.5111233 C175.021858,35.6132733 171.015559,35.2387233 167.139654,34.8811983 C160.440441,34.264515 153.510677,33.628915 146.658394,35.2103483 C142.933669,36.069165 139.456504,37.5370983 136.096504,38.95774 C132.723276,40.382165 129.537134,41.7290317 126.199811,42.4629983 C118.219339,44.2146817 110.021543,42.3986817 101.339969,40.46729 C92.4939843,38.4999567 83.3475276,36.4701983 74.1954016,38.4280733 C70.7295748,39.1714983 67.4149291,40.45594 64.2098898,41.7006567 C59.0073701,43.7228483 54.095874,45.6220817 49.1333543,45.0432317 C42.1960315,44.22414 37.9062677,38.8347817 33.3632756,33.129515 C29.8596535,28.7294983 25.6549291,25.7255317 21.5862677,22.8218233 C18.7799685,20.8166567 16.1286299,18.92499 13.6700472,16.5944567 C9.88107087,13.0021817 7.24107087,8.21248167 6.03540157,2.74367333 C5.72359055,1.33059833 4.4064252,0.382873333 2.96075591,0.534206667 C1.52264567,0.691215 0.434141732,1.905665 0.434141732,3.35468167 L0.434141732,60.3543817 C0.434141732,60.5586817 0.454929134,60.7648733 0.500283465,60.96539 C1.94973228,67.5464983 5.15666142,73.33689 9.77146457,77.712315 C12.5154016,80.3152483 15.4520945,82.411215 18.2924094,84.4390817 C22.2155591,87.24064 25.9213858,89.88519 28.9317795,93.66474 C33.7525669,99.719965 39.2177638,106.584823 48.4681575,107.676315 C49.3223307,107.778465 50.1632756,107.825757 50.9985512,107.825757 C56.384378,107.825757 61.392252,105.879232 66.2583937,103.991348 C69.3954016,102.773115 72.3566614,101.62109 75.3802835,100.97414 C83.3267402,99.27164 91.4791811,101.083857 100.111622,103.00579 C109.01052,104.984473 118.21178,107.029365 127.416819,105.00339 C131.262488,104.157815 134.841701,102.646373 138.301858,101.184115 C141.584378,99.7956317 144.68548,98.4865983 147.930205,97.73939 C153.898079,96.3622567 160.075717,96.9316483 166.616189,97.5313067 C170.652724,97.9020733 174.821543,98.2879733 178.999811,98.1839317 C200.694299,97.64859 220.997921,83.00709 228.377449,62.5789817 C228.488945,62.27064 228.545638,61.9433817 228.545638,61.6142317 L228.545638,4.61453167 C228.545638,3.23739833 227.557291,2.05699833 226.200441,1.81864833 L226.200441,1.81864833 Z" id="Fill-6" fill="#000000" mask="url(#mask-4)"></path>
                        </g>
                        <path d="M51.3033071,87.4592517 C63.3354331,90.379985 76.3067717,79.472635 79.2245669,67.4283933 C82.144252,55.3841517 73.9048819,46.7657183 61.8727559,43.844985 C49.8406299,40.92236 35.1137008,51.4059767 32.1959055,63.4502183 C29.2781102,75.4925683 39.2711811,84.5385183 51.3033071,87.4592517" id="Fill-9" fill="#000000"></path>
                        <path d="M184.008,42.4803367 C172.769575,39.7506617 166.686425,49.54382 163.961386,60.7935617 C161.234457,72.0433033 162.897449,80.4914867 174.135874,83.2211617 C185.374299,85.948945 202.605165,70.6396867 205.332094,59.3880533 C208.059024,48.1383117 195.246425,45.2100117 184.008,42.4803367" id="Fill-11" fill="#000000"></path>
                    </g>
                </g>
            </g>
        </g>
    </g>
</svg>