<?xml version="1.0" encoding="UTF-8" standalone="no"?>
<svg width="95px" height="116px" viewBox="0 0 95 116" version="1.1" xmlns="http://www.w3.org/2000/svg" xmlns:xlink="http://www.w3.org/1999/xlink">
    <!-- Generator: Sketch 3.6 (26304) - http://www.bohemiancoding.com/sketch -->
    <title>illo-icon</title>
    <desc>Created with Sketch.</desc>
    <defs></defs>
    <g id="Concept-1" stroke="none" stroke-width="1" fill="none" fill-rule="evenodd">
        <g id="about-page_desktop" transform="translate(-696.000000, -1367.000000)" fill="#000000">
            <g id="about-skills" transform="translate(337.000000, 630.000000)">
                <g id="illustration" transform="translate(306.000000, 695.000000)">
                    <g id="illo-icon" transform="translate(53.000000, 42.000000)">
                        <path d="M86.7836271,75.2976944 L81.5940508,72.9744722 L83.9159153,67.7818611 L89.1054915,70.1050833 L86.7836271,75.2976944 Z M18.0905763,50.8168611 L23.5393898,52.4456944 L21.9115085,57.8960833 L16.4643051,56.26725 L18.0905763,50.8168611 Z M93.9295593,68.2651944 C93.5447288,67.25825 92.7943898,66.4623611 91.8154068,66.0225278 L85.1557458,63.0419722 C84.1751525,62.6021389 83.0818475,62.5715278 82.0771017,62.9565833 C81.0707458,63.3400278 80.275322,64.0908056 79.8373559,65.0719722 L76.855322,71.7355278 C75.9487966,73.7623056 76.8601525,76.1483611 78.8857458,77.0570278 L80.161,77.6273611 C77.5074407,82.5396389 73.5834576,86.6656944 68.6547288,89.5818056 C62.1898983,93.4065833 54.7315932,94.7293056 47.4133729,93.4388056 C48.1443898,91.4700278 47.2459153,89.2386389 45.3008305,88.3670278 L38.6427797,85.3864722 C37.6637966,84.94825 36.5704915,84.9176389 35.5657458,85.2994722 C34.6382881,85.6539167 33.9024407,86.3289722 33.4467627,87.2005833 C30.4727797,84.8483611 27.9093898,81.9644722 25.9224407,78.6020833 C23.046678,73.7349167 21.5943051,68.3086944 21.5926949,62.8003056 C21.8793051,62.8631389 22.1659153,62.9275833 22.4541356,62.9275833 C23.1126949,62.9275833 23.7648136,62.7648611 24.3621864,62.4426389 C25.3089661,61.9303056 25.9997288,61.0828611 26.3088814,60.0533611 L28.3988814,53.0563056 C29.031678,50.9280278 27.8192203,48.6805278 25.6937966,48.04575 L18.7040508,45.9545278 L18.7024407,45.9545278 C16.5705763,45.3229722 14.3276102,46.5345278 13.6932034,48.6611944 L11.6048136,55.6550278 C11.2972712,56.6829167 11.4083729,57.7720278 11.9204068,58.7209722 C12.4324407,59.6699167 13.281,60.3610833 14.3098983,60.6688056 L16.8137119,61.4163611 C16.5464237,68.2539167 18.2000678,75.0318611 21.7633729,81.06225 C22.2480339,81.8806944 22.7826102,82.65725 23.3220169,83.4289722 L11.3343051,77.7175833 C11.3343051,77.6321944 11.3520169,77.5500278 11.3471864,77.4646389 C11.2167627,74.33425 8.55837288,71.8789167 5.43947458,72.0239167 C3.92591525,72.0883611 2.5250678,72.7376389 1.49938983,73.8541389 C0.472101695,74.97225 -0.0592542373,76.4206389 0.00515254237,77.9366944 C0.0679491525,79.4511389 0.716847458,80.8528056 1.83269492,81.8806944 C2.8889661,82.8521944 4.24311864,83.3806389 5.66811864,83.3806389 C5.74862712,83.3806389 5.83074576,83.3790278 5.91125424,83.3758056 C7.15430508,83.32425 8.30879661,82.8570278 9.25557627,82.0804722 L31.0637119,92.4689167 L30.3439661,94.0800278 C29.9043898,95.0611944 29.8754068,96.1535278 30.2586271,97.1588611 C30.6418475,98.1658056 31.3937966,98.9616944 32.3727797,99.4015278 L39.0324407,102.383694 C39.5654068,102.622139 40.1225254,102.733306 40.6699831,102.733306 C42.2093051,102.733306 43.6826102,101.847194 44.3508305,100.352083 L44.9240508,99.0696389 L67.0026949,109.586972 C67.0026949,109.672361 66.9849831,109.754528 66.9882034,109.839917 C67.051,111.357583 67.6998983,112.757639 68.8157458,113.785528 C69.8736271,114.757028 71.2261695,115.283861 72.6527797,115.283861 C72.7332881,115.283861 72.8137966,115.28225 72.8959153,115.279028 C74.4094746,115.216194 75.810322,114.566917 76.8376102,113.450417 C77.8632881,112.333917 78.3946441,110.885528 78.3318475,109.367861 C78.2690508,107.851806 77.6185424,106.45175 76.5026949,105.423861 C75.3868475,104.397583 73.9409153,103.878806 72.4257458,103.92875 C71.1810847,103.981917 70.0282034,104.447528 69.0814237,105.224083 L55.3482881,98.6829722 C60.8502373,98.2946944 66.2282034,96.6320278 71.1134576,93.7416944 C76.9148983,90.3100278 81.5022712,85.4186944 84.5680339,79.6009722 L85.5454068,80.0375833 C86.070322,80.2728056 86.6258305,80.3904167 87.1845593,80.3904167 C87.6692203,80.3904167 88.1571017,80.3018056 88.6240508,80.1229722 C89.6304068,79.7395278 90.4258305,78.98875 90.8637966,78.0075833 L93.8426102,71.34725 C94.2821864,70.3644722 94.3127797,69.2721389 93.9295593,68.2651944 L93.9295593,68.2651944 Z" id="Fill-1"></path>
                        <path d="M49.0987373,30.8331222 L64.8365339,12.6694556 L73.0194153,16.2525667 L78.7194153,18.7481778 L76.5521271,42.6925111 C76.4072119,43.7687333 75.8678051,44.7434556 75.0289068,45.4330111 L75.0272966,45.4330111 L53.7553475,62.9087333 L60.3264492,47.8899556 C60.3876356,47.8915667 60.4472119,47.9092889 60.5083983,47.9092889 C63.0057712,47.9092889 65.3904322,46.4560667 66.4531441,44.0249 C67.1471271,42.4379556 67.1825508,40.6770111 66.5529746,39.0642889 C65.9217881,37.4499556 64.7012797,36.1804 63.1168729,35.4876222 C59.8433983,34.0537333 56.0160254,35.5520667 54.5845847,38.8258444 C53.4945,41.3150111 54.1063644,44.1215667 55.9000932,45.9566222 L49.4497542,60.6982889 L48.2276356,33.6235667 C48.1809407,32.5860111 48.5126356,31.5694 49.0987373,30.8331222 M59.8578898,42.9374 C59.0254322,42.5716778 58.643822,41.5985667 59.0093305,40.7640111 C59.279839,40.1453444 59.8852627,39.7764 60.5212797,39.7764 C60.7418729,39.7764 60.9656864,39.8215111 61.179839,39.9149556 C61.5823814,40.0905667 61.8931441,40.4144 62.054161,40.8236222 C62.215178,41.2344556 62.2055169,41.6823444 62.0283983,42.0867333 C61.6645,42.9196778 60.6887373,43.3015111 59.8578898,42.9374 M47.899161,70.2811778 C48.5786525,70.5856778 49.2967881,70.7339 50.0084831,70.7339 C51.1774661,70.7339 52.3303475,70.3327333 53.2755169,69.5561778 L78.0914492,49.1675667 C79.8803475,47.6998444 81.0332288,45.6279556 81.3504322,43.2306222 L83.5821271,18.6096222 L88.6589915,15.2585111 C89.3964492,14.7703444 89.8102627,13.9180667 89.7345847,13.0351778 C89.6589068,12.1522889 89.1082288,11.3837889 88.2967034,11.0277333 L63.5870424,0.202677778 C62.7545847,-0.159822222 61.7933136,-0.0293222222 61.0912797,0.544233333 C60.3892458,1.11617778 60.0672119,2.03451111 60.2556017,2.92062222 L61.5630593,9.06862222 L45.3889068,27.7397889 C44.0073814,29.4636778 43.3021271,31.6322333 43.4019576,33.8410667 L44.8430593,65.7974556 C44.9332288,67.7630111 46.103822,69.4804556 47.899161,70.2811778" id="Fill-4"></path>
                    </g>
                </g>
            </g>
        </g>
    </g>
</svg>