<?xml version="1.0" encoding="UTF-8" standalone="no"?>
<svg width="89px" height="96px" viewBox="0 0 89 96" version="1.1" xmlns="http://www.w3.org/2000/svg" xmlns:xlink="http://www.w3.org/1999/xlink">
    <!-- Generator: Sketch 3.6 (26304) - http://www.bohemiancoding.com/sketch -->
    <title>marketing-icon</title>
    <desc>Created with Sketch.</desc>
    <defs></defs>
    <g id="Concept-1" stroke="none" stroke-width="1" fill="none" fill-rule="evenodd">
        <g id="about-page_desktop" transform="translate(-703.000000, -1884.000000)" fill="#000000">
            <g id="about-skills" transform="translate(337.000000, 630.000000)">
                <g id="marketing" transform="translate(318.000000, 1215.000000)">
                    <g id="marketing-icon" transform="translate(48.000000, 39.000000)">
                        <path d="M46.6875898,87.9821908 L13.1436407,35.7466831 C12.7076915,35.0682215 12.5357254,34.2540677 12.6609288,33.4549908 L15.9101831,12.6910523 C16.3054034,10.1626523 17.7701322,7.91769846 19.9272508,6.53514462 C21.3859458,5.59736 23.0709119,5.11489846 24.7724712,5.11489846 C25.585539,5.11489846 26.4031322,5.22496 27.2011153,5.45111385 L47.4418271,11.1456677 C48.2186915,11.3642831 48.8869458,11.8588062 49.3244034,12.5387754 L82.8668441,64.7712677 L46.6875898,87.9821908 Z M19.6466746,91.0066215 L4.62377627,30.7818523 C4.42767458,29.9978523 4.5272339,29.1716369 4.90133559,28.4554831 L10.5550983,17.6377908 L8.18981017,32.7569292 C7.89414915,34.6505908 8.30143729,36.5804369 9.33625085,38.19216 L39.9959966,85.9347446 L19.6466746,91.0066215 Z M87.8976068,64.2315138 L53.1317932,10.0948062 C52.0954712,8.48308308 50.5100644,7.30859077 48.6667085,6.78994462 L28.4275051,1.09689846 C27.0306576,0.703390769 25.5945898,0.543575385 24.1720983,0.606898462 C22.5670814,0.415421538 20.925861,0.495329231 19.323861,0.89336 C15.5828441,1.82511385 12.4120305,4.31883692 10.6259966,7.73526769 L0.890301695,26.3612985 C0.00181016949,28.0604677 -0.230494915,30.01896 0.23260678,31.8764369 L15.8015729,94.2948985 C15.9478949,94.8768677 16.3174712,95.3774215 16.831861,95.6864985 C17.187861,95.8990831 17.5906237,96.0091446 17.9979119,96.0091446 C18.1804373,96.0091446 18.3644712,95.9880369 18.5454881,95.9412985 L42.5769966,89.9542523 L44.1020644,92.3288677 C44.5334881,93.0012985 45.2635898,93.3676677 46.0072678,93.3676677 C46.4266237,93.3676677 46.8489966,93.2515754 47.2276237,93.0103446 L57.9724881,86.1171754 L64.6505051,84.4526831 C65.8633186,84.1511446 66.6009627,82.9253908 66.2992678,81.7116985 L66.0986407,80.9050831 L87.2157763,67.35696 C87.7211153,67.0328062 88.0771153,66.5216985 88.2038271,65.9352062 C88.3320475,65.3487138 88.2219288,64.7365908 87.8976068,64.2315138 L87.8976068,64.2315138 Z" id="Fill-1"></path>
                        <path d="M32.7637661,27.2224923 C31.2462407,28.1964615 29.2203593,27.7562154 28.2473932,26.2379692 C27.7752407,25.5037231 27.6183593,24.6292615 27.8039017,23.7774154 C27.9909525,22.9240615 28.4978,22.1958462 29.2324271,21.7254462 C29.7784949,21.3741538 30.3879186,21.2083077 30.9928169,21.2083077 C32.0698678,21.2083077 33.1258,21.7375077 33.7488,22.7099692 C34.7217661,24.2252 34.2797831,26.2485231 32.7637661,27.2224923 M37.5576983,20.266 C35.2346475,16.6505538 30.4045119,15.5981846 26.7886983,17.9170154 C25.0358508,19.0402462 23.8275627,20.7801231 23.3825627,22.8124923 C22.9390712,24.8463692 23.3146814,26.93 24.4384949,28.6819385 C25.9258508,30.9962462 28.4419864,32.2612 31.0109186,32.2612 C32.4515119,32.2612 33.9086983,31.8631692 35.2090034,31.0279077 C38.8248169,28.7075692 39.8777322,23.8784308 37.5576983,20.266" id="Fill-4"></path>
                        <path d="M49.9807407,43.6922215 C50.849622,43.6922215 51.7245373,43.8143446 52.5828593,44.0616062 C54.234639,44.5380369 55.6691983,45.4622523 56.8096051,46.6895138 L53.4577746,48.54096 C52.3641305,49.1455446 51.9658932,50.52056 52.5707915,51.6151446 C52.9826051,52.3614523 53.7564525,52.7820985 54.5529271,52.7820985 C54.9225034,52.7820985 55.2981136,52.6931446 55.6450627,52.5016677 L59.0180119,50.63816 C59.4524525,52.2604369 59.4509441,53.9716677 58.9727576,55.6256062 C58.4975881,57.2765292 57.5728932,58.7103446 56.3434864,59.85016 L54.4910797,56.49856 C53.8876898,55.4069908 52.511961,55.0104677 51.4168085,55.6120369 C50.3231644,56.2181292 49.9264356,57.5931446 50.5298254,58.6862215 L52.3927915,62.0589292 C50.7711814,62.4931446 49.0590627,62.4916369 47.4042661,62.0136985 C45.7524864,61.5372677 44.3179271,60.61456 43.1775203,59.3857908 L46.5293508,57.5358523 C47.6229949,56.92976 48.0197237,55.5547446 47.4163339,54.4616677 C46.8129441,53.3685908 45.4326898,52.9690523 44.3420627,53.5751446 L40.9691136,55.4371446 C40.5346729,53.8163754 40.5361814,52.1036369 41.0128593,50.4496985 C41.4895373,48.7987754 42.4142322,47.3664677 43.6421305,46.2251446 L45.4945373,49.5767446 C45.9078593,50.3230523 46.6801983,50.7452062 47.4781814,50.7452062 C47.8477576,50.7452062 48.2218593,50.6547446 48.5688085,50.4632677 C49.663961,49.8586831 50.0606898,48.4836677 49.4557915,47.3890831 L47.5898085,44.0118523 C48.3711983,43.8022831 49.1737068,43.6922215 49.9807407,43.6922215 L49.9807407,43.6922215 Z M44.1791475,37.8408677 C43.5757576,36.7492985 42.2000288,36.3527754 41.1048763,36.9543446 C40.0112322,37.5604369 39.6145034,38.9354523 40.2178932,40.0285292 L41.4005373,42.1694523 C39.1363169,43.9500369 37.4785034,46.3759138 36.6639271,49.1968062 C35.8508593,52.0176985 35.9624864,54.9531754 36.9309271,57.6670215 L34.7888932,58.8490523 C33.6952492,59.4536369 33.2985203,60.8286523 33.9019102,61.9232369 C34.3152322,62.6695446 35.0875712,63.0901908 35.8855542,63.0901908 C36.2551305,63.0901908 36.6307407,63.0012369 36.9761814,62.80976 L39.1182153,61.6262215 C40.8997237,63.8907754 43.3268593,65.5462215 46.1507237,66.3603754 C47.4253847,66.7267446 48.7226729,66.9076677 50.0124186,66.9076677 C51.5797237,66.9076677 53.1319441,66.6181908 54.6208085,66.0874831 L55.8064695,68.2344369 C56.2197915,68.9807446 56.9921305,69.4028985 57.7901136,69.4028985 C58.1596898,69.4028985 58.5337915,69.3124369 58.8807407,69.12096 C59.9743847,68.5163754 60.372622,67.14136 59.7677237,66.0467754 L58.5850797,63.90736 C60.8508085,62.1267754 62.5071136,59.7008985 63.3216898,56.8784985 C64.1362661,54.0576062 64.024639,51.1221292 63.0561983,48.4097908 L65.1967237,47.22776 C66.2918763,46.6216677 66.6886051,45.2466523 66.0837068,44.1535754 C65.4803169,43.0589908 64.1030797,42.6624677 63.0094356,43.2670523 L60.8674017,44.4490831 C59.0858932,42.1860369 56.6587576,40.5290831 53.8364017,39.7149292 C51.0125373,38.9022831 48.0755373,39.0138523 45.3617915,39.9817908 L44.1791475,37.8408677 Z" id="Fill-6"></path>
                    </g>
                </g>
            </g>
        </g>
    </g>
</svg>