<?xml version="1.0" encoding="UTF-8" standalone="no"?>
<svg width="62px" height="94px" viewBox="0 0 62 94" version="1.1" xmlns="http://www.w3.org/2000/svg" xmlns:xlink="http://www.w3.org/1999/xlink">
    <!-- Generator: Sketch 3.6 (26304) - http://www.bohemiancoding.com/sketch -->
    <title>pm-icon</title>
    <desc>Created with Sketch.</desc>
    <defs></defs>
    <g id="Concept-1" stroke="none" stroke-width="1" fill="none" fill-rule="evenodd">
        <g id="about-page_desktop" transform="translate(-575.000000, -2105.000000)" fill="#000000">
            <g id="about-skills" transform="translate(337.000000, 630.000000)">
                <g id="project-management" transform="translate(193.000000, 1450.000000)">
                    <g id="pm-icon" transform="translate(45.000000, 25.000000)">
                        <path d="M49.2380154,85.6537519 C47.9670154,85.6537519 46.9320923,84.6221316 46.9320923,83.3525367 C46.9320923,82.0841316 47.9670154,81.0525114 49.2380154,81.0525114 C50.5090154,81.0525114 51.5439385,82.0841316 51.5439385,83.3525367 C51.5439385,84.6221316 50.5090154,85.6537519 49.2380154,85.6537519 L49.2380154,85.6537519 Z M5.88213077,89.5018025 C4.61113077,89.5018025 3.5774,88.4701823 3.5774,87.2017772 C3.5774,85.9321823 4.61113077,84.900562 5.88213077,84.900562 C7.15432308,84.900562 8.18805385,85.9321823 8.18805385,87.2017772 C8.18805385,88.4701823 7.15432308,89.5018025 5.88213077,89.5018025 L5.88213077,89.5018025 Z M29.5387077,68.6540304 C29.5387077,69.9224354 28.5037846,70.9540557 27.2327846,70.9540557 C25.9617846,70.9540557 24.9268615,69.9224354 24.9268615,68.6540304 C24.9268615,67.3844354 25.9617846,66.3528152 27.2327846,66.3528152 C28.5037846,66.3528152 29.5387077,67.3844354 29.5387077,68.6540304 L29.5387077,68.6540304 Z M55.5977846,56.447119 C56.8699769,56.447119 57.9037077,57.4787392 57.9037077,58.7483342 C57.9037077,60.0167392 56.8699769,61.0483595 55.5977846,61.0483595 C54.3267846,61.0483595 53.2930538,60.0167392 53.2930538,58.7483342 C53.2930538,57.4787392 54.3267846,56.447119 55.5977846,56.447119 L55.5977846,56.447119 Z M14.5657077,47.2303595 C14.5657077,45.9619544 15.5994385,44.9291443 16.8716308,44.9291443 C18.1426308,44.9291443 19.1775538,45.9619544 19.1775538,47.2303595 C19.1775538,48.4987646 18.1426308,49.5315747 16.8716308,49.5315747 C15.5994385,49.5315747 14.5657077,48.4987646 14.5657077,47.2303595 L14.5657077,47.2303595 Z M47.6343615,35.8492203 C47.6343615,37.1176253 46.6006308,38.1504354 45.3284385,38.1504354 C44.0574385,38.1504354 43.0237077,37.1176253 43.0237077,35.8492203 C43.0237077,34.5796253 44.0574385,33.5480051 45.3284385,33.5480051 C46.6006308,33.5480051 47.6343615,34.5796253 47.6343615,35.8492203 L47.6343615,35.8492203 Z M36.2955154,4.3080557 L41.8075538,6.25111899 L36.2955154,9.00448608 L36.2955154,4.3080557 Z M61.4806308,58.7483342 C61.4806308,55.5106886 58.8420538,52.8774987 55.5977846,52.8774987 C52.3547077,52.8774987 49.7161308,55.5106886 49.7161308,58.7483342 C49.7161308,60.8353722 50.8214,62.6594481 52.4703615,63.7005873 L48.8994,77.5162076 C46.2524769,77.6708911 44.0717462,79.5580304 43.5065923,82.0698532 L11.3047462,84.9279291 C11.2975923,84.9112709 11.2880538,84.8958025 11.2797077,84.8791443 L24.1983615,73.6574481 C25.0866308,74.1964608 26.1191692,74.5236759 27.2327846,74.5236759 C30.4770538,74.5236759 33.1156308,71.8916759 33.1156308,68.6540304 C33.1156308,65.4163848 30.4770538,62.7831949 27.2327846,62.7831949 C26.9537846,62.7831949 26.6879,62.8284101 26.4196308,62.8652962 L20.9111692,51.4770177 C22.0402846,50.4061316 22.7544769,48.9033215 22.7544769,47.2303595 C22.7544769,47.0887646 22.7222846,46.9566886 22.7127462,46.8174734 L40.8203231,39.5747139 C41.9005538,40.8740557 43.5089769,41.7200557 45.3284385,41.7200557 C48.5727077,41.7200557 51.2112846,39.0856759 51.2112846,35.8492203 C51.2112846,32.6115747 48.5727077,29.9783848 45.3284385,29.9783848 C44.6392846,29.9783848 43.9870923,30.1187899 43.3718615,30.3377266 L36.2955154,21.0602835 L36.2955154,12.9965114 L47.1729385,7.56116962 C47.8144,7.24228354 48.2019,6.56881519 48.1565923,5.85489114 C48.1124769,5.13977722 47.6439,4.52104304 46.9678615,4.28306835 L35.1032077,0.103043038 C34.5547462,-0.0920962025 33.9490538,-0.00642531646 33.4745154,0.327929114 C32.9999769,0.662283544 32.7185923,1.20486582 32.7185923,1.78552405 L32.7185923,11.8578025 L32.7185923,11.9327646 L32.7185923,21.6623595 C32.7185923,22.052638 32.8461692,22.4322076 33.0846308,22.7427646 L40.5186692,32.4890177 C39.8474,33.4421063 39.4467846,34.5974734 39.4467846,35.8492203 C39.4467846,35.9896253 39.4777846,36.1228911 39.4885154,36.2621063 L21.3785538,43.5048658 C20.2995154,42.2055241 18.6899,41.3595241 16.8716308,41.3595241 C13.6273615,41.3595241 10.9887846,43.9927139 10.9887846,47.2303595 C10.9887846,50.4680051 13.6273615,53.1011949 16.8716308,53.1011949 C17.1494385,53.1011949 17.4165154,53.0559797 17.6847846,53.0190937 L23.1932462,64.4073722 C22.0641308,65.4782582 21.3499385,66.9798785 21.3499385,68.6540304 C21.3499385,69.4786127 21.5252077,70.2627392 21.8352077,70.9766633 L8.91655385,82.1983595 C8.02828462,81.6593468 6.99693846,81.3309418 5.88213077,81.3309418 C2.63905385,81.3309418 0.000476923078,83.9641316 0.000476923078,87.2017772 C0.000476923078,90.4382329 2.63905385,93.0714228 5.88213077,93.0714228 C8.68286154,93.0714228 11.0233615,91.104562 11.6135538,88.4844608 L43.8154,85.6263848 C44.7072462,87.7372203 46.8009385,89.2233722 49.2380154,89.2233722 C52.4810923,89.2233722 55.1208615,86.5901823 55.1208615,83.3525367 C55.1208615,81.2654987 54.0144,79.4414228 52.3654385,78.4002835 L55.9375923,64.5846633 C59.0209,64.4049924 61.4806308,61.8693722 61.4806308,58.7483342 L61.4806308,58.7483342 Z" id="Fill-1"></path>
                    </g>
                </g>
            </g>
        </g>
    </g>
</svg>