<?xml version="1.0" encoding="UTF-8" standalone="no"?>
<svg width="140px" height="109px" viewBox="0 0 140 109" version="1.1" xmlns="http://www.w3.org/2000/svg" xmlns:xlink="http://www.w3.org/1999/xlink">
    <!-- Generator: Sketch 3.6 (26304) - http://www.bohemiancoding.com/sketch -->
    <title>print-icon</title>
    <desc>Created with Sketch.</desc>
    <defs></defs>
    <g id="Concept-1" stroke="none" stroke-width="1" fill="none" fill-rule="evenodd">
        <g id="about-page_desktop" transform="translate(-509.000000, -801.000000)" fill="#000000">
            <g id="about-skills" transform="translate(337.000000, 630.000000)">
                <g id="print" transform="translate(117.000000, 100.000000)">
                    <g id="print-icon" transform="translate(55.000000, 71.000000)">
                        <path d="M90.039075,92.528785 C93.1614829,92.528785 95.7013382,89.996135 95.7013382,86.882585 C95.7013382,83.769035 93.1614829,81.236385 90.039075,81.236385 C86.9166671,81.236385 84.3768118,83.769035 84.3768118,86.882585 C84.3768118,89.996135 86.9166671,92.528785 90.039075,92.528785" id="Fill-1"></path>
                        <path d="M56.7322776,84.22728 L42.6044487,71.81933 L42.6044487,18.05278 L56.7322776,30.46073 L56.7322776,84.22728 Z M37.0386592,71.02568 L5.565975,80.72523 L5.565975,25.37138 L37.0386592,15.67183 L37.0386592,71.02568 Z M41.661975,9.82768 C41.6322908,9.80178 41.5970408,9.78883 41.5673566,9.76478 C41.4393434,9.66118 41.3039092,9.57053 41.1591987,9.49098 C41.1072513,9.46323 41.0590145,9.43178 41.0052118,9.40773 C40.8271066,9.32263 40.6415803,9.25603 40.4449224,9.21163 C40.428225,9.20608 40.4133829,9.19868 40.3966855,9.19498 C40.2111592,9.15613 40.0182118,9.13578 39.8215539,9.13578 C39.8011461,9.13578 39.7807382,9.14133 39.758475,9.14133 C39.6935408,9.14318 39.6286066,9.15428 39.5636724,9.16168 C39.4041197,9.17648 39.2482776,9.20053 39.0980013,9.24123 C39.0664618,9.25048 39.0330671,9.24863 38.9996724,9.25973 L1.96119868,20.67238 C0.796093421,21.03313 0.000185526316,22.10798 0.000185526316,23.32528 L0.000185526316,84.48813 C0.000185526316,85.36873 0.419475,86.19753 1.13004079,86.72108 C1.84246184,87.24463 2.76081711,87.39633 3.60496184,87.13918 L39.1536592,76.18348 L57.6747513,92.45238 C58.194225,92.90748 58.8509882,93.14428 59.5151724,93.14428 C59.9029224,93.14428 60.2943829,93.06473 60.661725,92.89823 C61.6580013,92.45053 62.2980671,91.46078 62.2980671,90.36928 L62.2980671,29.20643 C62.2980671,28.41093 61.9548434,27.65058 61.3555934,27.12518 L41.661975,9.82768 Z" id="Fill-3"></path>
                        <path d="M16.0279895,36.71817 C16.3025684,36.71817 16.5808579,36.67747 16.8554368,36.59237 L28.7588053,32.89607 C30.2263184,32.43912 31.0463447,30.88327 30.58995,29.42177 C30.1317,27.95842 28.5695684,27.14257 27.1057658,27.59582 L15.2023974,31.29212 C13.7348842,31.74722 12.9148579,33.30492 13.3712526,34.76642 C13.7441605,35.95597 14.8424763,36.71817 16.0279895,36.71817" id="Fill-5"></path>
                        <path d="M27.1052092,61.21698 L15.2018408,64.91328 C13.7343276,65.36838 12.9143013,66.92423 13.3725513,68.38758 C13.7436039,69.57713 14.8419197,70.33933 16.0274329,70.33933 C16.3020118,70.33933 16.5803013,70.29863 16.8567355,70.21168 L28.7601039,66.51538 C30.2276171,66.06028 31.0476434,64.50443 30.5893934,63.04108 C30.1311434,61.57773 28.5690118,60.76188 27.1052092,61.21698" id="Fill-7"></path>
                        <path d="M14.3421118,58.24958 C14.8319013,58.62328 15.4255855,58.81753 16.0285461,58.81753 C16.2752961,58.81753 16.5239013,58.78608 16.7669408,58.71763 L28.6703092,55.45608 C29.8780855,55.12678 30.7148092,54.02973 30.7148092,52.78098 L30.7148092,41.42753 C30.7148092,40.55248 30.3010855,39.72738 29.5960855,39.20383 C28.8910855,38.68028 27.9820066,38.52118 27.1360066,38.76908 L15.2326382,42.30998 C14.0545461,42.66148 13.2456513,43.74188 13.2456513,44.96843 L13.2456513,56.04253 C13.2456513,56.90833 13.6500987,57.72418 14.3421118,58.24958" id="Fill-9"></path>
                        <path d="M133.243701,33.24387 L115.676214,68.19037 L128.856004,27.12962 C129.397741,25.43872 129.583267,23.72377 129.479372,22.04952 L129.522043,22.07172 C131.503464,23.06332 132.983964,24.77457 133.688964,26.89282 C134.39582,29.01107 134.238122,31.26807 133.243701,33.24387 L133.243701,33.24387 Z M80.7378987,14.72537 C80.7378987,10.13367 84.4818197,6.40037 89.0865829,6.40037 L92.8138066,6.40037 C97.4167145,6.40037 101.162491,10.13367 101.162491,14.72537 L101.162491,87.55432 C101.162491,92.14602 97.4167145,95.87932 92.8138066,95.87932 L89.0865829,95.87932 C84.4818197,95.87932 80.7378987,92.14602 80.7378987,87.55432 L80.7378987,14.72537 Z M112.776438,19.21532 L106.72828,57.83777 L106.72828,14.72537 C106.72828,12.95122 106.379491,11.25847 105.769109,9.69707 L105.815491,9.70447 C110.362741,10.41487 113.487004,14.67912 112.776438,19.21532 L112.776438,19.21532 Z M118.14928,14.97142 C122.533267,16.37002 124.958096,21.06532 123.555517,25.43872 L111.605767,62.66812 L118.275438,20.07187 C118.550017,18.31807 118.46653,16.59387 118.104754,14.95662 L118.14928,14.97142 Z M138.970899,25.14457 C137.798372,21.61847 135.327162,18.76577 132.015517,17.11002 L128.683464,15.44502 C128.063807,15.13607 127.431162,14.89372 126.792951,14.68467 C125.115793,12.40732 122.744767,10.61097 119.844991,9.68597 L116.295872,8.55192 C115.640964,8.34472 114.978636,8.20227 114.312596,8.09312 C112.303346,6.10067 109.680004,4.69097 106.674478,4.22107 L102.989925,3.64757 C102.307188,3.54212 101.630017,3.50327 100.958412,3.49772 C98.6653066,1.84012 95.8564382,0.85037 92.8138066,0.85037 L89.0865829,0.85037 C81.4132145,0.85037 75.1721092,7.07377 75.1721092,14.72537 L75.1721092,87.55432 C75.1721092,89.04912 75.4170039,90.48657 75.8567013,91.83707 C75.4207145,97.30567 78.2703987,102.75392 83.4818329,105.36057 L86.8138855,107.02557 C88.7674776,108.00237 90.8806224,108.49632 93.0104645,108.49632 C94.4928197,108.49632 95.9825961,108.25767 97.4334118,107.77667 C100.969543,106.60562 103.830359,104.14142 105.488964,100.84102 L138.219517,35.73212 C139.879978,32.42987 140.147136,28.66882 138.970899,25.14457 L138.970899,25.14457 Z" id="Fill-11"></path>
                    </g>
                </g>
            </g>
        </g>
    </g>
</svg>