<?xml version="1.0" encoding="UTF-8" standalone="no"?>
<svg width="106px" height="116px" viewBox="0 0 106 116" version="1.1" xmlns="http://www.w3.org/2000/svg" xmlns:xlink="http://www.w3.org/1999/xlink">
    <!-- Generator: Sketch 3.6 (26304) - http://www.bohemiancoding.com/sketch -->
    <title>web-icon</title>
    <desc>Created with Sketch.</desc>
    <defs></defs>
    <g id="Concept-1" stroke="none" stroke-width="1" fill="none" fill-rule="evenodd">
        <g id="about-page_desktop" transform="translate(-588.000000, -1095.000000)" fill="#000000">
            <g id="about-skills" transform="translate(337.000000, 630.000000)">
                <g id="web-ux" transform="translate(192.000000, 410.000000)">
                    <g id="web-icon" transform="translate(59.000000, 55.000000)">
                        <path d="M95.0104246,72.9027613 L93.71261,72.9027613 C91.3778992,72.9027613 89.4769227,74.8046111 89.4769227,77.1403946 L89.4769227,84.1714757 L88.6992505,84.1714757 L79.8466641,84.1714757 L70.9957719,84.1714757 L62.1431854,84.1714757 L53.290599,84.1714757 L44.4380125,84.1714757 L35.585426,84.1714757 L26.7328396,84.1714757 L17.8819474,84.1714757 L17.1025809,84.1714757 L17.1025809,77.1403946 C17.1025809,74.8046111 15.2032988,72.9027613 12.8668936,72.9027613 L11.3860974,72.9027613 L11.3860974,16.8914201 L12.8668936,16.8914201 C15.2032988,16.8914201 17.1025809,14.9895703 17.1025809,12.6537868 L17.1025809,11.355376 L89.4769227,11.355376 L89.4769227,12.6537868 C89.4769227,14.9895703 91.3778992,16.8914201 93.71261,16.8914201 L95.0104246,16.8914201 L95.0104246,72.9027613 Z M94.5614417,83.9731544 L100.543926,83.9731544 L100.543926,77.9879212 L94.5614417,77.9879212 L94.5614417,83.9731544 Z M95.0104246,110.741436 L82.3880764,110.741436 L82.3880764,98.1132891 L88.6992505,98.1132891 L95.0104246,98.1132891 L95.0104246,110.741436 Z M64.6845978,98.1132891 L70.9957719,98.1132891 L77.3052517,98.1132891 L77.3052517,110.741436 L64.6845978,110.741436 L64.6845978,98.1132891 Z M46.9794249,98.1132891 L53.290599,98.1132891 L59.601773,98.1132891 L59.601773,110.741436 L46.9794249,110.741436 L46.9794249,98.1132891 Z M29.274252,98.1132891 L35.585426,98.1132891 L41.8966001,98.1132891 L41.8966001,110.741436 L29.274252,110.741436 L29.274252,98.1132891 Z M11.5707733,98.1132891 L17.8819474,98.1132891 L24.1914272,98.1132891 L24.1914272,110.741436 L11.5707733,110.741436 L11.5707733,98.1132891 Z M11.5707733,93.0281292 L15.340535,93.0281292 L15.340535,89.2566356 L11.5707733,89.2566356 L11.5707733,93.0281292 Z M91.2406629,93.0281292 L95.0104246,93.0281292 L95.0104246,89.2566356 L91.2406629,89.2566356 L91.2406629,93.0281292 Z M82.3880764,93.0281292 L86.1578381,93.0281292 L86.1578381,89.2566356 L82.3880764,89.2566356 L82.3880764,93.0281292 Z M73.5371842,93.0281292 L77.3069459,93.0281292 L77.3069459,89.2566356 L73.5371842,89.2566356 L73.5371842,93.0281292 Z M64.6845978,93.0281292 L68.4543595,93.0281292 L68.4543595,89.2566356 L64.6845978,89.2566356 L64.6845978,93.0281292 Z M55.8320113,93.0281292 L59.601773,93.0281292 L59.601773,89.2566356 L55.8320113,89.2566356 L55.8320113,93.0281292 Z M46.9794249,93.0281292 L50.7491866,93.0281292 L50.7491866,89.2566356 L46.9794249,89.2566356 L46.9794249,93.0281292 Z M38.1268384,93.0281292 L41.8966001,93.0281292 L41.8966001,89.2566356 L38.1268384,89.2566356 L38.1268384,93.0281292 Z M29.274252,93.0281292 L33.0440137,93.0281292 L33.0440137,89.2566356 L29.274252,89.2566356 L29.274252,93.0281292 Z M20.4233598,93.0281292 L24.1931215,93.0281292 L24.1931215,89.2566356 L20.4233598,89.2566356 L20.4233598,93.0281292 Z M6.03727143,83.9731544 L12.0197562,83.9731544 L12.0197562,77.9879212 L6.03727143,77.9879212 L6.03727143,83.9731544 Z M6.03727143,11.8062602 L12.0197562,11.8062602 L12.0197562,5.821027 L6.03727143,5.821027 L6.03727143,11.8062602 Z M94.5597475,11.8062602 L100.542232,11.8062602 L100.542232,5.821027 L94.5597475,5.821027 L94.5597475,11.8062602 Z M101.391064,16.8914201 C103.725775,16.8914201 105.626751,14.9895703 105.626751,12.6537868 L105.626751,4.97350035 C105.626751,2.6377169 103.725775,0.735867098 101.391064,0.735867098 L93.71261,0.735867098 C91.3778992,0.735867098 89.4769227,2.6377169 89.4769227,4.97350035 L89.4769227,6.27021612 L17.1025809,6.27021612 L17.1025809,4.97350035 C17.1025809,2.6377169 15.2032988,0.735867098 12.8668936,0.735867098 L5.19013397,0.735867098 C2.85542313,0.735867098 0.954446672,2.6377169 0.954446672,4.97350035 L0.954446672,12.6537868 C0.954446672,14.9895703 2.85542313,16.8914201 5.19013397,16.8914201 L6.3032726,16.8914201 L6.3032726,72.9027613 L5.19013397,72.9027613 C2.85542313,72.9027613 0.954446672,74.8046111 0.954446672,77.1403946 L0.954446672,84.8206811 C0.954446672,87.1581596 2.85542313,89.0583143 5.19013397,89.0583143 L6.48794856,89.0583143 L6.48794856,95.5707091 L6.48794856,113.284016 C6.48794856,114.68752 7.62480703,115.826596 9.02936094,115.826596 L26.7328396,115.826596 L44.4380125,115.826596 L62.1431854,115.826596 L79.8466641,115.826596 L97.551837,115.826596 C98.9563909,115.826596 100.093249,114.68752 100.093249,113.284016 L100.093249,95.5707091 L100.093249,89.0583143 L101.391064,89.0583143 C103.725775,89.0583143 105.626751,87.1581596 105.626751,84.8206811 L105.626751,77.1403946 C105.626751,74.8046111 103.725775,72.9027613 101.391064,72.9027613 L100.093249,72.9027613 L100.093249,16.8914201 L101.391064,16.8914201 Z" id="Fill-1"></path>
                        <path d="M37.658202,31.4029409 C36.6653569,30.4096397 35.05749,30.4096397 34.0646449,31.4029409 L23.3568274,42.1156778 C22.3639823,43.1072839 22.3639823,44.7175846 23.3568274,45.7108858 L34.0646449,56.4236227 C34.5610674,56.9202733 35.211669,57.1677511 35.8605763,57.1677511 C36.5111779,57.1677511 37.1617794,56.9202733 37.658202,56.4236227 C38.6510471,55.4303214 38.6510471,53.8200208 37.658202,52.8284146 L28.7480102,43.9124343 L37.658202,34.998149 C38.6510471,34.0065428 38.6510471,32.3945471 37.658202,31.4029409" id="Fill-4"></path>
                        <path d="M72.3320465,31.4029409 C71.3392014,30.4096397 69.7313345,30.4096397 68.7384894,31.4029409 C67.7456443,32.3945471 67.7456443,34.0065428 68.7384894,34.998149 L77.6486812,43.9124343 L68.7384894,52.8284146 C67.7456443,53.8200208 67.7456443,55.4303214 68.7384894,56.4236227 C69.2349119,56.9202733 69.8855135,57.1677511 70.5344208,57.1677511 C71.1850224,57.1677511 71.8356239,56.9202733 72.3320465,56.4236227 L83.039864,45.7108858 C84.0327091,44.7175846 84.0327091,43.1072839 83.039864,42.1156778 L72.3320465,31.4029409 Z" id="Fill-6"></path>
                        <path d="M57.3085719,26.9932597 C55.9582348,26.618653 54.5536809,27.4068527 54.1775519,28.7595053 L45.1182639,61.2791028 C44.7421348,62.6317554 45.531667,64.0352595 46.8836983,64.4115613 C47.1124255,64.4742783 47.3428468,64.5047893 47.5681854,64.5047893 C48.6796298,64.5047893 49.7012775,63.7691361 50.0147184,62.6453158 L59.0740064,30.1257182 C59.4518297,28.7713707 58.6606033,27.3695616 57.3085719,26.9932597" id="Fill-8"></path>
                    </g>
                </g>
            </g>
        </g>
    </g>
</svg>