<?xml version="1.0" encoding="UTF-8" standalone="no"?>
<svg width="20px" height="23px" viewBox="0 0 20 23" version="1.1" xmlns="http://www.w3.org/2000/svg" xmlns:xlink="http://www.w3.org/1999/xlink">
    <!-- Generator: Sketch 3.6.1 (26313) - http://www.bohemiancoding.com/sketch -->
    <title>css3</title>
    <desc>Created with Sketch.</desc>
    <defs></defs>
    <g id="Concept-1" stroke="none" stroke-width="1" fill="none" fill-rule="evenodd">
        <g id="work-detail-page-basic_desktop" transform="translate(-159.000000, -691.000000)">
            <g id="css3-badge" transform="translate(159.000000, 691.000000)">
                <g id="css3">
                    <g id="Layer_1">
                        <g id="Page_1">
                            <g id="Layer_1_1_">
                                <path d="M1.81879195,20.7068047 L0.0067114094,0.0476331361 L19.966443,0.0476331361 L18.147651,20.7068047 L9.97315436,23 L1.81879195,20.7068047 L1.81879195,20.7068047 Z" id="Shape_1_" fill="#000000"></path>
                                <path d="M9.98657718,21.2443787 L16.590604,19.3866864 L18.147651,1.7352071 L9.98657718,1.7352071 L9.98657718,21.2443787 L9.98657718,21.2443787 Z" id="Shape_2_" fill="#FFFFFF"></path>
                                <g id="Group" transform="translate(3.691275, 4.082840)">
                                    <path d="M6.29530201,5.13757396 L9.60402685,5.13757396 L9.83221477,2.54497041 L6.29530201,2.54497041 L6.29530201,0.00680473373 L6.30201342,0.00680473373 L12.557047,0.00680473373 L12.4966443,0.687278107 L11.8791946,7.66893491 L6.29530201,7.66893491 L6.29530201,5.13757396 L6.29530201,5.13757396 Z" id="Shape_3_" fill="#000000"></path>
                                    <path d="M6.30872483,11.7177515 L6.29530201,11.7177515 L3.51006711,10.9556213 L3.32885906,8.93461538 L1.98657718,8.93461538 L0.832214765,8.93461538 L1.18120805,12.9153846 L6.29530201,14.3579882 L6.30872483,14.3579882 L6.30872483,11.7177515 L6.30872483,11.7177515 Z" id="Shape_4_" fill="#FFFFFF"></path>
                                    <path d="M9.38926174,7.56686391 L9.08724832,10.962426 L6.30201342,11.7245562 L6.30201342,14.3579882 L11.4228188,12.9153846 L11.4630872,12.4866864 L11.8993289,7.56005917 L9.38926174,7.56005917 L9.38926174,7.56686391 Z" id="Shape_5_" fill="#000000"></path>
                                    <path d="M6.30201342,0.00680473373 L6.30201342,1.57869822 L6.30201342,2.53136095 L6.30201342,2.53816568 L0.275167785,2.53816568 L0.268456376,2.53816568 L0.214765101,1.97337278 L0.100671141,0.687278107 L0.0402684564,0.00680473373 L6.30201342,0.00680473373 L6.30201342,0.00680473373 Z" id="Shape_6_" fill="#FFFFFF"></path>
                                    <path d="M6.29530201,5.13757396 L6.29530201,6.70946746 L6.29530201,7.66213018 L6.29530201,7.66893491 L3.55704698,7.66893491 L3.55033557,7.66893491 L3.5033557,7.09733728 L3.38926174,5.8112426 L3.32885906,5.13076923 L6.29530201,5.13076923 L6.29530201,5.13757396 Z" id="Shape_7_" fill="#FFFFFF"></path>
                                </g>
                            </g>
                        </g>
                    </g>
                </g>
            </g>
        </g>
    </g>
</svg>