<?xml version="1.0" encoding="UTF-8" standalone="no"?>
<svg width="20px" height="23px" viewBox="0 0 20 23" version="1.1" xmlns="http://www.w3.org/2000/svg" xmlns:xlink="http://www.w3.org/1999/xlink">
    <!-- Generator: Sketch 3.6.1 (26313) - http://www.bohemiancoding.com/sketch -->
    <title>HTML5_Badge</title>
    <desc>Created with Sketch.</desc>
    <defs></defs>
    <g id="Concept-1" stroke="none" stroke-width="1" fill="none" fill-rule="evenodd">
        <g id="work-detail-page-basic_desktop" transform="translate(-90.000000, -691.000000)">
            <g id="html5-badge" transform="translate(90.000000, 691.000000)">
                <g id="HTML5_Badge">
                    <g id="Layer_1">
                        <path d="M1.81818182,20.6640625 L0,0 L20,0 L18.1818182,20.6640625 L9.97782705,23" id="Shape" fill="#000000"></path>
                        <path d="M10.0221729,21.203125 L16.6297118,19.3613281 L18.1818182,1.66210938 L10.0221729,1.66210938" id="Shape" fill="#FFFFFF"></path>
                        <path d="M10.0221729,9.34375 L6.6962306,9.34375 L6.47450111,6.73828125 L10.0221729,6.73828125 L10.0221729,4.22265625 L9.97782705,4.22265625 L3.72505543,4.22265625 L3.76940133,4.89648438 L4.3902439,11.9042969 L10.0221729,11.9042969 L10.0221729,9.34375 L10.0221729,9.34375 Z M10.0221729,15.9472656 L9.97782705,15.9472656 L7.18403548,15.1835937 L7.00665188,13.1621094 L5.67627494,13.1621094 L4.5232816,13.1621094 L4.83370288,17.1601562 L9.97782705,18.5976562 L10.0221729,18.5976562 L10.0221729,15.9472656 L10.0221729,15.9472656 Z" id="Shape" fill="#FFFFFF"></path>
                        <path d="M9.97782705,9.34375 L9.97782705,11.9042969 L13.0820399,11.9042969 L12.7716186,15.1835938 L9.97782705,15.9472656 L9.97782705,18.5976563 L15.1219512,17.1601563 L15.1662971,16.7109375 L15.7427938,10.0175781 L15.8314856,9.34375 L15.1219512,9.34375 L9.97782705,9.34375 L9.97782705,9.34375 Z M9.97782705,4.22265625 L9.97782705,5.79492188 L9.97782705,6.73828125 L9.97782705,6.73828125 L16.0532151,6.73828125 L16.0532151,6.73828125 L16.0532151,6.73828125 L16.097561,6.19921875 L16.2305987,4.89648438 L16.2749446,4.22265625 L9.97782705,4.22265625 L9.97782705,4.22265625 Z" id="Shape" fill="#000000"></path>
                    </g>
                </g>
            </g>
        </g>
    </g>
</svg>