<?xml version="1.0" encoding="UTF-8" standalone="no"?>
<svg width="38px" height="38px" viewBox="0 0 38 38" version="1.1" xmlns="http://www.w3.org/2000/svg" xmlns:xlink="http://www.w3.org/1999/xlink">
    <!-- Generator: Sketch 3.6.1 (26313) - http://www.bohemiancoding.com/sketch -->
    <title>id-icon</title>
    <desc>Created with Sketch.</desc>
    <defs></defs>
    <g id="Concept-1" stroke="none" stroke-width="1" fill="none" fill-rule="evenodd">
        <g id="work-detail-page-basic_desktop" transform="translate(-219.000000, -611.000000)">
            <g id="nav">
                <g id="skills-tools" transform="translate(0.000000, 557.000000)">
                    <g id="id-icon" transform="translate(219.000000, 54.000000)">
                        <rect id="id-outline" stroke="#FFFFFF" stroke-width="4" x="0" y="0" width="38" height="38" rx="6"></rect>
                        <path d="M10.7499999,12.45 L10.7499999,25.55 C10.7499999,25.84 10.9099999,26 11.1999999,26 L12.5999999,26 C12.8899999,26 13.0499999,25.84 13.0499999,25.55 L13.0499999,12.45 C13.0499999,12.16 12.8899999,12 12.5999999,12 L11.1999999,12 C10.9099999,12 10.7499999,12.16 10.7499999,12.45 L10.7499999,12.45 Z M26.14,12 L24.88,12 C24.59,12 24.43,12.16 24.43,12.45 L24.43,17.4351999 C23.6732001,16.3853998 22.4967999,15.7399997 20.9201999,15.7399997 C18.2001999,15.7399997 15.9501999,18.0299997 15.9501999,20.9999997 C15.9501999,23.9699997 18.2001999,26.2599997 20.9201999,26.2599997 C22.4967999,26.2599997 23.6732001,25.6145996 24.43,24.5647995 L24.43,25.5499994 C24.43,25.8399994 24.59,25.9999994 24.88,25.9999994 L26.14,25.9999994 C26.43,25.9999994 26.59,25.8399994 26.59,25.5499994 L26.59,12.4499994 C26.59,12.1599994 26.43,11.9999994 26.14,11.9999994 L26.14,12 Z M21.27,24.1999994 C19.47,24.1999994 18.11,22.8599994 18.11,20.9999994 C18.11,19.1399994 19.47,17.7999994 21.27,17.7999994 C23.07,17.7999994 24.43,19.1399994 24.43,20.9999994 C24.43,22.8599994 23.07,24.1999994 21.27,24.1999994 L21.27,24.1999994 Z" id="Id" fill="#FFFFFF"></path>
                    </g>
                </g>
            </g>
        </g>
    </g>
</svg>