<?xml version="1.0" encoding="UTF-8" standalone="no"?>
<svg width="20px" height="15px" viewBox="0 0 20 15" version="1.1" xmlns="http://www.w3.org/2000/svg" xmlns:xlink="http://www.w3.org/1999/xlink">
    <!-- Generator: Sketch 3.8.2 (29753) - http://www.bohemiancoding.com/sketch -->
    <title>js-icon</title>
    <desc>Created with Sketch.</desc>
    <defs></defs>
    <g id="Page-1" stroke="none" stroke-width="1" fill="none" fill-rule="evenodd">
        <g id="js-icon" fill="#FFFFFF">
            <g id="Concept-1">
                <g id="work-detail-page-basic_desktop">
                    <g id="js-badge">
                        <path d="M4.655,14.247 C6.9065,14.247 9.025,12.9455 9.025,10.124 L9.025,1.1275 C9.025,0.852 8.873,0.7 8.5975,0.7 L7.2675,0.7 C6.992,0.7 6.84,0.852 6.84,1.1275 L6.84,10.124 C6.84,11.492 5.947,12.119 4.655,12.119 C3.4865,12.119 2.6315,11.606 2.4985,10.2665 C2.4605,9.991 2.3085,9.839 2.052,9.839 L0.7125,9.839 C0.437,9.839 0.285,9.991 0.304,10.2855 C0.494,13.069 2.508,14.247 4.655,14.247 L4.655,14.247 L4.655,14.247 Z M15.523,14.247 C17.917,14.247 19.9975,12.898 19.9975,10.4565 C19.9975,7.768 17.5655,7.0555 15.6085,6.3335 C14.2595,5.83 13.205,5.3455 13.205,4.1865 C13.205,3.208 14.0315,2.581 15.238,2.581 C16.416,2.581 17.2425,3.113 17.404,4.1675 C17.442,4.4335 17.5845,4.576 17.841,4.576 L19.1805,4.576 C19.456,4.576 19.6175,4.424 19.5985,4.1295 C19.3895,1.6595 17.404,0.453 15.238,0.453 C13.072,0.453 11.02,1.7545 11.02,4.1865 C11.02,6.932 13.319,7.6635 15.2665,8.3665 C16.6345,8.8605 17.8125,9.345 17.8125,10.4565 C17.8125,11.4445 16.9575,12.119 15.523,12.119 C14.0695,12.119 13.1195,11.53 12.9485,10.3995 C12.9105,10.124 12.768,9.9815 12.5115,9.9815 L11.172,9.9815 C10.8965,9.9815 10.735,10.1335 10.754,10.428 C10.963,12.993 13.0815,14.247 15.523,14.247 L15.523,14.247 L15.523,14.247 Z" id="JS"></path>
                    </g>
                </g>
            </g>
        </g>
    </g>
</svg>