<?xml version="1.0" encoding="UTF-8" standalone="no"?>
<svg width="114px" height="123px" viewBox="0 0 114 123" version="1.1" xmlns="http://www.w3.org/2000/svg" xmlns:xlink="http://www.w3.org/1999/xlink" xmlns:sketch="http://www.bohemiancoding.com/sketch/ns">
    <!-- Generator: Sketch 3.5.2 (25235) - http://www.bohemiancoding.com/sketch -->
    <title>logo</title>
    <desc>Created with Sketch.</desc>
    <defs>
        <path id="path-1" d="M0,0.198941953 L113.972472,0.198941953 L113.972472,123 L0,123 L0,0.198941953 Z"></path>
        <path id="path-3" d="M0,0.198941953 L113.972472,0.198941953 L113.972472,123 L0,123"></path>
    </defs>
    <g id="Concept-1" stroke="none" stroke-width="1" fill="none" fill-rule="evenodd" sketch:type="MSPage">
        <g id="landing-page-with-work-hover" sketch:type="MSArtboardGroup" transform="translate(-113.000000, -59.000000)">
            <g id="nav" sketch:type="MSLayerGroup" transform="translate(1.000000, 0.000000)">
                <g id="logo" transform="translate(112.000000, 59.000000)">
                    <path d="M16.0995852,112.874991 C17.2719716,112.874991 19.6585227,113.336484 19.6585227,114.818975 L19.6585227,115.741961 L19.0444773,115.741961 L19.0444773,114.958851 C19.0444773,113.882033 17.2023409,113.44845 16.1135114,113.44845 C13.6712557,113.44845 11.8151932,115.350244 11.8151932,117.867687 C11.8151932,120.398761 13.6576534,122.426476 16.1556136,122.426476 C17.0345795,122.426476 19.1979886,122.062993 19.1979886,120.930355 L19.1979886,120.161199 L19.8120341,120.161199 L19.8120341,121.070231 C19.8120341,122.468666 17.5093636,122.999935 16.1556136,122.999935 C13.26675,122.999935 11.1872216,120.706423 11.1872216,117.867687 C11.1872216,115.028626 13.3085284,112.874991 16.0995852,112.874991" id="Fill-1" fill="#FFFFFF" sketch:type="MSShapeGroup"></path>
                    <path d="M29.0271205,117.937625 C30.3109159,117.937625 31.1905295,117.028593 31.1905295,115.672023 C31.1905295,114.679261 30.7296716,114.077892 29.989967,113.797815 C29.6133136,113.657939 29.1246034,113.602118 28.6083648,113.602118 L26.4452795,113.602118 L26.4452795,117.937625 L29.0271205,117.937625 Z M24.5192625,122.273132 L25.8451602,122.273132 L25.8451602,113.602118 L24.5192625,113.602118 L24.5192625,113.042615 L28.636217,113.042615 C29.2923648,113.042615 29.7807511,113.084804 30.3109159,113.266546 C31.2183818,113.616074 31.8181773,114.385554 31.8181773,115.644113 C31.8181773,117.154514 30.9252852,118.273198 29.4876545,118.440984 L29.4876545,118.468894 C29.4876545,118.468894 29.6272398,118.58086 29.766825,118.818422 L31.6089614,121.95119 C31.7763989,122.230942 31.9438364,122.273132 32.3208136,122.273132 L32.586058,122.273132 L32.586058,122.832311 L32.3208136,122.832311 C31.4693761,122.832311 31.357967,122.720345 30.9809898,122.091066 L29.2363364,119.140364 C28.9432398,118.63668 28.74795,118.496804 28.0782,118.496804 L26.4452795,118.496804 L26.4452795,122.273132 L27.7711773,122.273132 L27.7711773,122.832311 L24.5192625,122.832311 L24.5192625,122.273132 Z" id="Fill-3" fill="#FFFFFF" sketch:type="MSShapeGroup"></path>
                    <path d="M37.3520676,122.272969 L38.6779653,122.272969 L38.6779653,113.602281 L37.3520676,113.602281 L37.3520676,113.042777 L44.0929653,113.042777 L44.0929653,114.86084 L43.5067722,114.86084 L43.5067722,113.602281 L39.2780847,113.602281 L39.2780847,117.615845 L43.1715733,117.615845 L43.1715733,118.175349 L39.2780847,118.175349 L39.2780847,122.272969 L43.7856187,122.272969 L43.7856187,120.930355 L44.3721358,120.930355 L44.3721358,122.832149 L37.3520676,122.832149 L37.3520676,122.272969 Z" id="Fill-5" fill="#FFFFFF" sketch:type="MSShapeGroup"></path>
                    <path d="M55.6636739,118.88849 L53.9611227,114.315421 C53.8636398,114.063904 53.8215375,113.784152 53.8215375,113.784152 L53.7936852,113.784152 C53.7936852,113.784152 53.7519068,114.063904 53.6541,114.315421 L51.9376227,118.88849 L55.6636739,118.88849 Z M48.9927307,122.273099 L50.0397818,122.273099 L53.4866625,113.042582 L54.1285602,113.042582 L57.5757648,122.273099 L58.622492,122.273099 L58.622492,122.832279 L55.7475545,122.832279 L55.7475545,122.273099 L56.933867,122.273099 L55.8732136,119.447994 L51.7284068,119.447994 L50.6816795,122.273099 L51.867992,122.273099 L51.867992,122.832279 L48.9927307,122.832279 L48.9927307,122.273099 Z" id="Fill-7" fill="#FFFFFF" sketch:type="MSShapeGroup"></path>
                    <path d="M64.193983,122.272969 L65.5198807,122.272969 L65.5198807,113.602281 L62.393625,113.602281 L62.393625,115.252558 L61.8077557,115.252558 L61.8077557,113.042777 L69.832125,113.042777 L69.832125,115.252558 L69.2462557,115.252558 L69.2462557,113.602281 L66.12,113.602281 L66.12,122.272969 L67.4455739,122.272969 L67.4455739,122.832149 L64.193983,122.832149 L64.193983,122.272969 Z" id="Fill-9" fill="#FFFFFF" sketch:type="MSShapeGroup"></path>
                    <path d="M74.571675,122.272969 L75.8975727,122.272969 L75.8975727,113.602281 L74.571675,113.602281 L74.571675,113.042777 L77.8232659,113.042777 L77.8232659,113.602281 L76.497692,113.602281 L76.497692,122.272969 L77.8232659,122.272969 L77.8232659,122.832149 L74.571675,122.832149 L74.571675,122.272969 Z" id="Fill-11" fill="#FFFFFF" sketch:type="MSShapeGroup"></path>
                    <path d="M83.4508176,113.602281 L82.4040903,113.602281 L82.4040903,113.042777 L85.2651017,113.042777 L85.2651017,113.602281 L84.1069653,113.602281 L86.9537267,121.615455 C87.0376074,121.867297 87.0933119,122.147049 87.0933119,122.147049 L87.1350903,122.147049 C87.1350903,122.147049 87.1907949,121.867297 87.2746756,121.615455 L90.1217608,113.602281 L88.9633006,113.602281 L88.9633006,113.042777 L91.8243119,113.042777 L91.8243119,113.602281 L90.7636585,113.602281 L87.4560392,122.832149 L86.7581131,122.832149 L83.4508176,113.602281 Z" id="Fill-13" fill="#FFFFFF" sketch:type="MSShapeGroup"></path>
                    <path d="M96.413233,122.272969 L97.7391307,122.272969 L97.7391307,113.602281 L96.413233,113.602281 L96.413233,113.042777 L103.154131,113.042777 L103.154131,114.86084 L102.567938,114.86084 L102.567938,113.602281 L98.33925,113.602281 L98.33925,117.615845 L102.232739,117.615845 L102.232739,118.175349 L98.33925,118.175349 L98.33925,122.272969 L102.846784,122.272969 L102.846784,120.930355 L103.433301,120.930355 L103.433301,122.832149 L96.413233,122.832149 L96.413233,122.272969 Z" id="Fill-15" fill="#FFFFFF" sketch:type="MSShapeGroup"></path>
                    <mask id="mask-2" sketch:name="Clip 18" fill="white">
                        <use xlink:href="#path-1"></use>
                    </mask>
                    <g id="Clip-18"></g>
                    <path d="M79.7887295,42.0222522 L76.0072977,46.015371 C75.6617352,46.380152 75.1082523,46.4515504 74.6820477,46.1860781 L64.8051784,40.0377008 C64.4945932,39.844276 64.3057807,39.5038354 64.3057807,39.1374317 L64.3057807,33.3395557 L80.0792352,33.3395557 L80.0792352,41.2926902 C80.0792352,41.5640042 79.975275,41.8252575 79.7887295,42.0222522 L79.7887295,42.0222522 Z M47.4859227,46.2918776 L37.5821727,41.7201071 C37.2071386,41.5471282 36.9671557,41.1713129 36.9671557,40.7575266 L36.9671557,33.3236533 L48.9860591,33.3236533 L48.9860591,45.3292971 C48.9860591,46.1023472 48.1867636,46.6154422 47.4859227,46.2918776 L47.4859227,46.2918776 Z M78.987167,23.7056375 L87.7305136,10.2207483 C88.0524341,9.72420475 87.9060477,9.05987493 87.4056784,8.74539736 L75.5049852,1.26349235 C75.0156273,0.956154617 74.3704909,1.09862691 74.0560193,1.58413615 L64.901042,15.706743 C64.5826841,16.1974449 63.9281557,16.3369963 63.4384739,16.0186243 L39.3624511,0.369713984 C38.8672636,0.0477720317 38.2046386,0.194463325 37.8911386,0.695550396 L29.6598205,13.8432443 C29.3511784,14.3362179 29.4965932,14.9859435 29.9856273,15.2994475 L43.0991898,23.7056375 L30.1601898,23.7056375 C29.5759398,23.7056375 29.1024511,24.1804369 29.1024511,24.7655794 L29.1024511,44.5870781 C29.1024511,44.9940491 29.3349852,45.3649963 29.7006273,45.5418697 L55.3052864,57.9259251 C56.0074227,58.2657166 56.8225875,57.7529462 56.8225875,56.971458 L56.8225875,47.3252074 C56.8225875,46.4755662 57.7705364,45.9712338 58.4729966,46.4473314 L75.7229455,58.1365504 C76.1565989,58.4305821 76.7395534,58.3621045 77.0938602,57.9762285 L88.0368886,46.0569119 C88.2163091,45.8612153 88.3160591,45.6051546 88.3160591,45.3393578 L88.3160591,24.7655794 C88.3160591,24.1804369 87.8425705,23.7056375 87.2583205,23.7056375 L78.987167,23.7056375 Z" id="Fill-17" fill="#FFFFFF" sketch:type="MSShapeGroup" mask="url(#mask-2)"></path>
                    <path d="M5.35132841,85.1738976 L5.35003295,87.8919055 L9.74194773,87.8938528 C10.1279932,87.5706127 10.3219875,87.0873752 10.3223114,86.6288026 C10.3226352,85.8073963 9.79052727,85.1755203 8.9148,85.1751958 L5.35132841,85.1738976 Z M12.8853682,94.3774781 C12.8860159,93.1406628 12.1842034,92.3150375 10.772158,92.3143884 L5.34808977,92.3117921 L5.34614659,96.4363488 L10.7404193,96.4389451 C12.1822602,96.4395942 12.8847205,95.5863831 12.8853682,94.3774781 L12.8853682,94.3774781 Z M14.6831352,88.6876734 C16.8617659,89.7885071 18.2307375,91.937924 18.2297659,94.609523 C18.2278227,98.3861747 15.4147432,101.300528 11.4762375,101.29923 L1.19615795,101.294362 L0.8172375,101.294362 C0.296788636,101.294037 0.000129545455,100.996111 0.000129545455,100.474578 L0.00887386364,81.1308 C0.00919772727,80.609267 0.306180682,80.31199 0.826629545,80.3123145 L5.35327159,80.3139372 L8.97277159,80.3155599 C12.6518625,80.3175071 15.5426693,82.6369821 15.54105,86.0238633 C15.5407261,87.0101351 15.2197773,87.9305256 14.6828114,88.6879979 L14.6831352,88.6876734 Z" id="Fill-20" fill="#FFFFFF" sketch:type="MSShapeGroup" mask="url(#mask-2)"></path>
                    <path d="M33.509458,93.6556401 L31.4594011,86.4109726 L29.402867,93.6536929 L33.509458,93.6556401 Z M41.1665659,100.389484 C41.3599125,100.956777 41.076208,101.312796 40.4819182,101.312471 L36.3979977,101.310524 C35.9374636,101.310524 35.6103614,101.102495 35.4769295,100.61082 L34.8214295,98.2926427 L28.0866852,98.2897219 L27.4289182,100.60725 C27.2951625,101.098925 26.9680602,101.306305 26.5072023,101.30598 L22.4236057,101.304033 C21.828992,101.304033 21.5462591,100.948015 21.7396057,100.380722 L28.0481455,81.0096823 C28.1819011,80.5485135 28.5248727,80.3245821 28.9857307,80.3249066 L33.939225,80.3271784 C34.3997591,80.3275029 34.7430545,80.5514343 34.8764864,81.0129277 L41.1672136,100.389484 L41.1665659,100.389484 Z" id="Fill-22" fill="#FFFFFF" sketch:type="MSShapeGroup" mask="url(#mask-2)"></path>
                    <path d="M55.3999841,101.767831 C49.0746034,101.764585 44.4857795,97.0126963 44.4886943,90.8237517 C44.4912852,84.6348071 49.0843193,79.8864879 55.4097,79.8897332 C60.2796375,79.8916805 64.42995,83.0030288 65.5705977,87.4917174 C65.7040295,88.0573876 65.3927966,88.4007491 64.8425523,88.4007491 L60.8943307,88.3988018 C60.4334727,88.3988018 60.1662852,88.1745459 59.9590125,87.74291 C59.1921034,86.1241132 57.4435636,85.1258335 55.4071091,85.1251844 C52.0470239,85.1235617 49.8347114,87.4706224 49.8334159,90.8256989 C49.8317966,94.1807755 52.0421659,96.5294588 55.4022511,96.5310815 C57.452308,96.5317306 59.2014955,95.5217675 59.9560977,93.9036198 C60.1636943,93.4719839 60.4308818,93.2480525 60.8917398,93.2480525 L64.8538875,93.2499997 C65.4047795,93.2503243 65.7153648,93.5781079 65.5812852,94.113596 C64.4545636,98.6152662 60.3136432,101.769129 55.3996602,101.766857 L55.3999841,101.767831 Z" id="Fill-24" fill="#FFFFFF" sketch:type="MSShapeGroup" mask="url(#mask-2)"></path>
                    <path d="M86.605379,90.8422504 C86.6069983,87.4871739 84.1673335,85.138166 80.9665892,85.1365433 C77.7658449,85.1349206 75.3239131,87.4819813 75.3222938,90.8370578 C75.3206744,94.1921343 77.7606631,96.5411422 80.9614074,96.5424404 C84.1621517,96.5440631 86.6037597,94.1973269 86.605379,90.8422504 M69.977896,90.8344615 C69.9808108,84.6451923 74.872771,79.8971976 80.9691801,79.9001185 C87.0652653,79.9030393 91.9526915,84.6555776 91.9497767,90.8445222 C91.9468619,97.0331422 87.0555494,101.781137 80.9591403,101.778216 C74.8630551,101.775295 69.9749812,97.0230815 69.977896,90.8344615" id="Fill-26" fill="#FFFFFF" sketch:type="MSShapeGroup" mask="url(#mask-2)"></path>
                    <g id="Group-30" mask="url(#mask-2)">
                        <mask id="mask-4" sketch:name="Clip 29" fill="white">
                            <use xlink:href="#path-3"></use>
                        </mask>
                        <g id="Clip-29"></g>
                        <path d="M109.445991,80.3612873 L113.155202,80.36291 C113.675651,80.3632346 113.972957,80.6608361 113.972634,81.1823691 L113.963565,100.526147 C113.963565,101.04768 113.665935,101.345282 113.14581,101.344958 L110.469401,101.343659 C110.038662,101.343335 109.69569,101.179443 109.472548,100.807847 L103.039969,90.4894773 L103.035111,100.520955 C103.035111,101.042812 102.737804,101.340414 102.217679,101.340089 L98.5084687,101.338467 C97.987696,101.338142 97.6910369,101.040541 97.6910369,100.518683 L97.6997812,81.1752293 C97.7001051,80.6533718 97.9970881,80.3557702 98.5178608,80.3560947 L101.19427,80.3573929 C101.625009,80.3573929 101.967656,80.5219338 102.191122,80.8935301 L108.623702,91.2118995 L108.628236,81.1797728 C108.62856,80.6582398 108.925543,80.3609628 109.445991,80.3612873" id="Fill-28" fill="#FFFFFF" sketch:type="MSShapeGroup" mask="url(#mask-4)"></path>
                    </g>
                </g>
            </g>
        </g>
    </g>
</svg>