<?xml version="1.0" encoding="UTF-8" standalone="no"?>
<svg width="38px" height="38px" viewBox="0 0 38 38" version="1.1" xmlns="http://www.w3.org/2000/svg" xmlns:xlink="http://www.w3.org/1999/xlink">
    <!-- Generator: Sketch 3.6.1 (26313) - http://www.bohemiancoding.com/sketch -->
    <title>ps-icon</title>
    <desc>Created with Sketch.</desc>
    <defs></defs>
    <g id="Concept-1" stroke="none" stroke-width="1" fill="none" fill-rule="evenodd">
        <g id="work-detail-page-basic_desktop" transform="translate(-150.000000, -611.000000)">
            <g id="nav">
                <g id="skills-tools" transform="translate(0.000000, 557.000000)">
                    <g id="ps-icon" transform="translate(150.000000, 54.000000)">
                        <rect id="ps-outline" stroke="#FFFFFF" stroke-width="4" x="0" y="0" width="38" height="38" rx="6"></rect>
                        <path d="M14.4699999,12 L11.6199999,12 L9.76999993,12 C9.47999993,12 9.31999993,12.16 9.31999993,12.45 L9.31999993,25.55 C9.31999993,25.84 9.47999993,26 9.76999993,26 L11.1699999,26 C11.4599999,26 11.6199999,25.84 11.6199999,25.55 L11.6199999,21 L14.4699999,21 C17.0099999,21 19.0199999,18.98 19.0199999,16.5 C19.0199999,14.01 17.0099999,12 14.4699999,12 L14.4699999,12 Z M14.4699999,18.84 L11.6199999,18.84 L11.6199999,14.16 L14.4699999,14.16 C15.7299999,14.16 16.7199999,15.19 16.7199999,16.5 C16.7199999,17.8 15.7299999,18.84 14.4699999,18.84 L14.4699999,18.84 Z M22.93,18.81 C22.93,18.05 23.65,17.68 24.55,17.68 C25.26,17.68 25.93,17.97 26.09,18.68 C26.19,18.94 26.3,19.09 26.57,19.09 L27.81,19.09 C28.1,19.09 28.28,18.93 28.25,18.62 C28.03,16.72 26.42,15.74 24.55,15.74 C22.49,15.74 20.77,16.86 20.77,18.81 C20.77,22.62 26.32,21.2 26.32,23.19 C26.32,23.95 25.6,24.32 24.55,24.32 C23.68,24.32 22.98,24.03 22.81,23.31 C22.71,23.06 22.6,22.91 22.33,22.91 L21.09,22.91 C20.8,22.91 20.62,23.07 20.65,23.38 C20.87,25.28 22.5,26.26 24.55,26.26 C26.76,26.26 28.48,25.16 28.48,23.19 C28.48,19.37 22.93,20.82 22.93,18.81 L22.93,18.81 Z" id="Ps" fill="#FFFFFF"></path>
                    </g>
                </g>
            </g>
        </g>
    </g>
</svg>