<?xml version="1.0" encoding="UTF-8" standalone="no"?>
<svg width="33px" height="32px" viewBox="0 0 33 32" version="1.1" xmlns="http://www.w3.org/2000/svg" xmlns:xlink="http://www.w3.org/1999/xlink" xmlns:sketch="http://www.bohemiancoding.com/sketch/ns">
    <!-- Generator: Sketch 3.5.2 (25235) - http://www.bohemiancoding.com/sketch -->
    <title>logo</title>
    <desc>Created with Sketch.</desc>
    <defs></defs>
    <g id="Concept-1" stroke="none" stroke-width="1" fill="none" fill-rule="evenodd" sketch:type="MSPage">
        <g id="landing-page-with-work-hover_mobile" sketch:type="MSArtboardGroup" transform="translate(-33.000000, -20.000000)" fill="#FFFFFF">
            <g id="nav" sketch:type="MSLayerGroup">
                <g id="logo" transform="translate(33.000000, 20.000000)" sketch:type="MSShapeGroup">
                    <path d="M28.222177,23.07312 L26.1166689,25.2604978 C25.924259,25.46032 25.6160787,25.4994311 25.3787672,25.3540089 L19.8793082,21.9860089 C19.7063738,21.8800533 19.6012426,21.6935644 19.6012426,21.4928533 L19.6012426,18.3168533 L28.3839311,18.3168533 L28.3839311,22.6734756 C28.3839311,22.8220978 28.3260459,22.9652089 28.222177,23.07312 L28.222177,23.07312 Z M10.2359148,25.4119644 L4.72148852,22.9076089 C4.51266885,22.8128533 4.3790459,22.6069867 4.3790459,22.38032 L4.3790459,18.3081422 L11.0711934,18.3081422 L11.0711934,24.8846756 C11.0711934,25.3081422 10.6261443,25.5892089 10.2359148,25.4119644 L10.2359148,25.4119644 Z M27.7758656,13.03952 L32.644177,5.65267556 C32.823423,5.38067556 32.7419148,5.01676444 32.4633082,4.84449778 L25.8369803,0.746008889 C25.5645049,0.577653333 25.2052918,0.655697778 25.0301934,0.921653333 L19.9326852,8.65783111 C19.755423,8.92663111 19.3909803,9.00307556 19.1183246,8.82867556 L5.71275082,0.256408889 C5.43702951,0.0800533333 5.06807869,0.160408889 4.89352131,0.434897778 L0.310308197,7.63703111 C0.138455738,7.90707556 0.219422951,8.26298667 0.491718033,8.43472 L7.79337377,13.03952 L0.588914754,13.03952 C0.263603279,13.03952 -3.60655736e-05,13.2996089 -3.60655736e-05,13.6201422 L-3.60655736e-05,24.4780978 C-3.60655736e-05,24.7010311 0.129439344,24.9042311 0.333029508,25.00112 L14.5897508,31.7849422 C14.9807016,31.9710756 15.4345869,31.6901867 15.4345869,31.2620978 L15.4345869,25.9780089 C15.4345869,25.5125867 15.9624066,25.23632 16.3535377,25.49712 L25.958341,31.90032 C26.1998,32.0613867 26.5243902,32.0238756 26.7216689,31.8124978 L32.8147672,25.2832533 C32.9146689,25.1760533 32.9702098,25.0357867 32.9702098,24.8901867 L32.9702098,13.6201422 C32.9702098,13.2996089 32.7065705,13.03952 32.381259,13.03952 L27.7758656,13.03952 Z"></path>
                </g>
            </g>
        </g>
    </g>
</svg>