<?xml version="1.0" encoding="UTF-8" standalone="no"?>
<svg width="18px" height="15px" viewBox="0 0 18 15" version="1.1" xmlns="http://www.w3.org/2000/svg" xmlns:xlink="http://www.w3.org/1999/xlink">
    <!-- Generator: Sketch 3.6.1 (26313) - http://www.bohemiancoding.com/sketch -->
    <title>twitter-icon</title>
    <desc>Created with Sketch.</desc>
    <defs></defs>
    <g id="Concept-1" stroke="none" stroke-width="1" fill="none" fill-rule="evenodd">
        <g id="contact-page" transform="translate(-129.000000, -452.000000)" fill="#000000">
            <g id="nav">
                <g id="social" transform="translate(0.000000, 369.000000)">
                    <g id="twitter-icon" transform="translate(129.000000, 83.000000)">
                        <path d="M17.3558692,2.1572928 C16.7203833,2.43839174 16.0374523,2.62837455 15.3206591,2.71381955 C16.0522986,2.2763865 16.6141215,1.58375267 16.878702,0.758477437 C16.1940652,1.16345903 15.4357023,1.45760156 14.6285676,1.61614111 C13.9821523,0.929241419 13.0612378,0.5 12.042085,0.5 C10.0850866,0.5 8.49848818,2.0824339 8.49848818,4.03424732 C8.49848818,4.31125044 8.52988658,4.58100712 8.59028269,4.8396736 C5.64527711,4.69228727 3.03428226,3.28521726 1.28658545,1.14694974 C0.981572428,1.66894562 0.806828017,2.27607144 0.806828017,2.92377733 C0.806828017,4.14993834 1.43245849,5.23173762 2.38325509,5.86551774 C1.80235312,5.84718109 1.25600834,5.68820045 0.778209355,5.42348477 C0.777956652,5.43822971 0.777956652,5.45303765 0.777956652,5.46790861 C0.777956652,7.18033739 1.9993986,8.60883166 3.62042783,8.93347226 C3.32305909,9.01425434 3.01002273,9.05741793 2.68681507,9.05741793 C2.45849753,9.05741793 2.23649758,9.03530052 2.02018346,8.99402731 C2.47106953,10.3981987 3.77969415,11.4200101 5.3302823,11.4485548 C4.11755862,12.3964524 2.5896506,12.9614858 0.929515524,12.9614858 C0.643518436,12.9614858 0.36143825,12.9447875 0.0842226047,12.912147 C1.65237364,13.9149286 3.51498733,14.5 5.51608249,14.5 C12.0338089,14.5 15.5979379,9.11450729 15.5979379,4.44408087 C15.5979379,4.29083438 15.5945264,4.13840704 15.5877034,3.98686189 C16.2799844,3.48855872 16.8807868,2.86605785 17.3558692,2.1572928" id="twitter"></path>
                    </g>
                </g>
            </g>
        </g>
    </g>
</svg>